# Blender 5.1.1
# www.blender.org
o EngineVolume
v -0.100000 0.300000 -1.700000
v -0.100000 0.350000 -1.700000
v -0.150000 0.400000 -1.700000
v -0.100000 0.400000 -1.700000
v -0.100000 0.450000 -1.700000
v -0.100000 0.500000 -1.700000
v -0.100000 0.250000 -1.750000
v -0.100000 0.250000 -1.800000
v -0.100000 0.300000 -1.750000
v -0.100000 0.350000 -1.750000
v -0.100000 0.300000 -1.800000
v -0.100000 0.350000 -1.800000
v -0.150000 0.400000 -1.750000
v -0.150000 0.450000 -1.750000
v -0.150000 0.400000 -1.800000
v -0.150000 0.450000 -1.800000
v -0.100000 0.400000 -1.750000
v -0.100000 0.450000 -1.750000
v -0.100000 0.400000 -1.800000
v -0.100000 0.450000 -1.800000
v -0.100000 0.500000 -1.750000
v -0.100000 0.500000 -1.800000
v -0.100000 0.250000 -1.850000
v -0.100000 0.250000 -1.900000
v -0.100000 0.300000 -1.850000
v -0.100000 0.350000 -1.850000
v -0.100000 0.300000 -1.900000
v -0.100000 0.350000 -1.900000
v -0.150000 0.400000 -1.850000
v -0.150000 0.450000 -1.850000
v -0.150000 0.400000 -1.900000
v -0.150000 0.450000 -1.900000
v -0.100000 0.400000 -1.850000
v -0.100000 0.450000 -1.850000
v -0.100000 0.400000 -1.900000
v -0.100000 0.450000 -1.900000
v -0.100000 0.500000 -1.850000
v -0.100000 0.500000 -1.900000
v -0.100000 0.250000 -1.950000
v -0.100000 0.250000 -2.000000
v -0.100000 0.300000 -1.950000
v -0.100000 0.350000 -1.950000
v -0.100000 0.300000 -2.000000
v -0.100000 0.350000 -2.000000
v -0.150000 0.400000 -1.950000
v -0.150000 0.450000 -1.950000
v -0.150000 0.400000 -2.000000
v -0.150000 0.450000 -2.000000
v -0.100000 0.400000 -1.950000
v -0.100000 0.450000 -1.950000
v -0.100000 0.400000 -2.000000
v -0.100000 0.450000 -2.000000
v -0.100000 0.500000 -1.950000
v -0.100000 0.500000 -2.000000
v -0.100000 0.250000 -2.050000
v -0.100000 0.250000 -2.100000
v -0.100000 0.300000 -2.050000
v -0.100000 0.350000 -2.050000
v -0.100000 0.300000 -2.100000
v -0.100000 0.350000 -2.100000
v -0.150000 0.400000 -2.050000
v -0.150000 0.450000 -2.050000
v -0.150000 0.400000 -2.100000
v -0.150000 0.450000 -2.100000
v -0.100000 0.400000 -2.050000
v -0.100000 0.450000 -2.050000
v -0.100000 0.400000 -2.100000
v -0.100000 0.450000 -2.100000
v -0.100000 0.500000 -2.050000
v -0.100000 0.500000 -2.100000
v -0.100000 0.350000 -2.150000
v -0.100000 0.400000 -2.150000
v -0.100000 0.450000 -2.150000
v -0.050000 0.100000 -1.700000
v -0.050000 0.150000 -1.700000
v -0.050000 0.200000 -1.700000
v -0.050000 0.250000 -1.700000
v -0.050000 0.300000 -1.700000
v -0.050000 0.350000 -1.700000
v -0.050000 0.400000 -1.700000
v -0.050000 0.450000 -1.700000
v -0.050000 0.500000 -1.700000
v -0.050000 0.100000 -1.750000
v -0.050000 0.150000 -1.750000
v -0.050000 0.100000 -1.800000
v -0.050000 0.150000 -1.800000
v -0.050000 0.200000 -1.750000
v -0.050000 0.250000 -1.750000
v -0.050000 0.200000 -1.800000
v -0.050000 0.250000 -1.800000
v -0.050000 0.300000 -1.750000
v -0.050000 0.350000 -1.750000
v -0.050000 0.300000 -1.800000
v -0.050000 0.350000 -1.800000
v -0.050000 0.400000 -1.750000
v -0.050000 0.450000 -1.750000
v -0.050000 0.400000 -1.800000
v -0.050000 0.450000 -1.800000
v -0.050000 0.500000 -1.750000
v -0.050000 0.500000 -1.800000
v -0.050000 0.100000 -1.850000
v -0.050000 0.150000 -1.850000
v -0.050000 0.100000 -1.900000
v -0.050000 0.150000 -1.900000
v -0.050000 0.200000 -1.850000
v -0.050000 0.250000 -1.850000
v -0.050000 0.200000 -1.900000
v -0.050000 0.250000 -1.900000
v -0.050000 0.300000 -1.850000
v -0.050000 0.350000 -1.850000
v -0.050000 0.300000 -1.900000
v -0.050000 0.350000 -1.900000
v -0.050000 0.400000 -1.850000
v -0.050000 0.450000 -1.850000
v -0.050000 0.400000 -1.900000
v -0.050000 0.450000 -1.900000
v -0.050000 0.500000 -1.850000
v -0.050000 0.500000 -1.900000
v -0.050000 0.100000 -1.950000
v -0.050000 0.150000 -1.950000
v -0.050000 0.150000 -2.000000
v -0.050000 0.200000 -1.950000
v -0.050000 0.250000 -1.950000
v -0.050000 0.200000 -2.000000
v -0.050000 0.250000 -2.000000
v -0.050000 0.300000 -1.950000
v -0.050000 0.350000 -1.950000
v -0.050000 0.300000 -2.000000
v -0.050000 0.350000 -2.000000
v -0.050000 0.400000 -1.950000
v -0.050000 0.450000 -1.950000
v -0.050000 0.400000 -2.000000
v -0.050000 0.450000 -2.000000
v -0.050000 0.500000 -1.950000
v -0.050000 0.500000 -2.000000
v -0.050000 0.150000 -2.050000
v -0.050000 0.200000 -2.050000
v -0.050000 0.250000 -2.050000
v -0.050000 0.200000 -2.100000
v -0.050000 0.250000 -2.100000
v -0.050000 0.300000 -2.050000
v -0.050000 0.350000 -2.050000
v -0.050000 0.300000 -2.100000
v -0.050000 0.350000 -2.100000
v -0.050000 0.400000 -2.050000
v -0.050000 0.450000 -2.050000
v -0.050000 0.400000 -2.100000
v -0.050000 0.450000 -2.100000
v -0.050000 0.500000 -2.050000
v -0.050000 0.500000 -2.100000
v -0.050000 0.250000 -2.150000
v -0.050000 0.300000 -2.150000
v -0.050000 0.350000 -2.150000
v -0.050000 0.400000 -2.150000
v -0.050000 0.450000 -2.150000
v -0.050000 0.500000 -2.150000
v 0.000000 -0.550000 -1.900000
v 0.000000 -0.500000 -1.900000
v 0.000000 -0.450000 -1.900000
v 0.000000 -0.400000 -1.900000
v 0.000000 -0.350000 -1.900000
v 0.000000 -0.300000 -1.900000
v 0.000000 -0.250000 -1.900000
v 0.000000 -0.200000 -1.900000
v 0.000000 -0.150000 -1.900000
v 0.000000 -0.100000 -1.900000
v 0.000000 -0.050000 -1.900000
v 0.000000 -0.650000 -1.950000
v 0.000000 -0.600000 -1.950000
v 0.000000 -0.550000 -1.950000
v 0.000000 -0.550000 -2.000000
v 0.000000 0.300000 -1.650000
v 0.000000 0.450000 -1.650000
v 0.000000 0.100000 -1.700000
v 0.000000 0.150000 -1.700000
v 0.050000 0.100000 -1.700000
v 0.050000 0.150000 -1.700000
v 0.000000 0.200000 -1.700000
v 0.000000 0.250000 -1.700000
v 0.050000 0.200000 -1.700000
v 0.050000 0.250000 -1.700000
v 0.000000 0.300000 -1.700000
v 0.000000 0.350000 -1.700000
v 0.050000 0.300000 -1.700000
v 0.050000 0.350000 -1.700000
v 0.000000 0.400000 -1.700000
v 0.000000 0.450000 -1.700000
v 0.050000 0.400000 -1.700000
v 0.050000 0.450000 -1.700000
v 0.000000 0.500000 -1.700000
v 0.050000 0.500000 -1.700000
v 0.000000 0.100000 -1.750000
v 0.000000 0.150000 -1.750000
v 0.000000 0.100000 -1.800000
v 0.000000 0.150000 -1.800000
v 0.050000 0.100000 -1.750000
v 0.050000 0.150000 -1.750000
v 0.050000 0.100000 -1.800000
v 0.050000 0.150000 -1.800000
v 0.000000 0.200000 -1.750000
v 0.000000 0.250000 -1.750000
v 0.000000 0.200000 -1.800000
v 0.000000 0.250000 -1.800000
v 0.050000 0.200000 -1.750000
v 0.050000 0.250000 -1.750000
v 0.050000 0.200000 -1.800000
v 0.050000 0.250000 -1.800000
v 0.000000 0.300000 -1.750000
v 0.000000 0.350000 -1.750000
v 0.000000 0.300000 -1.800000
v 0.000000 0.350000 -1.800000
v 0.050000 0.300000 -1.750000
v 0.050000 0.350000 -1.750000
v 0.050000 0.300000 -1.800000
v 0.050000 0.350000 -1.800000
v 0.000000 0.400000 -1.750000
v 0.000000 0.450000 -1.750000
v 0.000000 0.400000 -1.800000
v 0.000000 0.450000 -1.800000
v 0.050000 0.400000 -1.750000
v 0.050000 0.450000 -1.750000
v 0.050000 0.400000 -1.800000
v 0.050000 0.450000 -1.800000
v 0.000000 0.500000 -1.750000
v 0.000000 0.500000 -1.800000
v 0.050000 0.500000 -1.750000
v 0.050000 0.500000 -1.800000
v 0.000000 0.000000 -1.900000
v 0.000000 0.050000 -1.900000
v 0.000000 0.100000 -1.850000
v 0.000000 0.150000 -1.850000
v 0.000000 0.100000 -1.900000
v 0.000000 0.150000 -1.900000
v 0.050000 0.100000 -1.850000
v 0.050000 0.150000 -1.850000
v 0.050000 0.100000 -1.900000
v 0.050000 0.150000 -1.900000
v 0.000000 0.200000 -1.850000
v 0.000000 0.250000 -1.850000
v 0.000000 0.200000 -1.900000
v 0.000000 0.250000 -1.900000
v 0.050000 0.200000 -1.850000
v 0.050000 0.250000 -1.850000
v 0.050000 0.200000 -1.900000
v 0.050000 0.250000 -1.900000
v 0.000000 0.300000 -1.850000
v 0.000000 0.350000 -1.850000
v 0.000000 0.300000 -1.900000
v 0.000000 0.350000 -1.900000
v 0.050000 0.300000 -1.850000
v 0.050000 0.350000 -1.850000
v 0.050000 0.300000 -1.900000
v 0.050000 0.350000 -1.900000
v 0.000000 0.400000 -1.850000
v 0.000000 0.450000 -1.850000
v 0.000000 0.400000 -1.900000
v 0.000000 0.450000 -1.900000
v 0.050000 0.400000 -1.850000
v 0.050000 0.450000 -1.850000
v 0.050000 0.400000 -1.900000
v 0.050000 0.450000 -1.900000
v 0.000000 0.500000 -1.850000
v 0.000000 0.500000 -1.900000
v 0.050000 0.500000 -1.850000
v 0.050000 0.500000 -1.900000
v 0.000000 0.100000 -1.950000
v 0.000000 0.150000 -1.950000
v 0.000000 0.100000 -2.000000
v 0.000000 0.150000 -2.000000
v 0.050000 0.100000 -1.950000
v 0.050000 0.150000 -1.950000
v 0.050000 0.150000 -2.000000
v 0.000000 0.200000 -1.950000
v 0.000000 0.250000 -1.950000
v 0.000000 0.200000 -2.000000
v 0.000000 0.250000 -2.000000
v 0.050000 0.200000 -1.950000
v 0.050000 0.250000 -1.950000
v 0.050000 0.200000 -2.000000
v 0.050000 0.250000 -2.000000
v 0.000000 0.300000 -1.950000
v 0.000000 0.350000 -1.950000
v 0.000000 0.300000 -2.000000
v 0.000000 0.350000 -2.000000
v 0.050000 0.300000 -1.950000
v 0.050000 0.350000 -1.950000
v 0.050000 0.300000 -2.000000
v 0.050000 0.350000 -2.000000
v 0.000000 0.400000 -1.950000
v 0.000000 0.450000 -1.950000
v 0.000000 0.400000 -2.000000
v 0.000000 0.450000 -2.000000
v 0.050000 0.400000 -1.950000
v 0.050000 0.450000 -1.950000
v 0.050000 0.400000 -2.000000
v 0.050000 0.450000 -2.000000
v 0.000000 0.500000 -1.950000
v 0.000000 0.500000 -2.000000
v 0.050000 0.500000 -1.950000
v 0.050000 0.500000 -2.000000
v 0.000000 0.550000 -1.950000
v 0.000000 0.150000 -2.050000
v 0.050000 0.150000 -2.050000
v 0.000000 0.200000 -2.050000
v 0.000000 0.250000 -2.050000
v 0.000000 0.200000 -2.100000
v 0.000000 0.250000 -2.100000
v 0.050000 0.200000 -2.050000
v 0.050000 0.250000 -2.050000
v 0.050000 0.200000 -2.100000
v 0.050000 0.250000 -2.100000
v 0.000000 0.300000 -2.050000
v 0.000000 0.350000 -2.050000
v 0.000000 0.300000 -2.100000
v 0.000000 0.350000 -2.100000
v 0.050000 0.300000 -2.050000
v 0.050000 0.350000 -2.050000
v 0.050000 0.300000 -2.100000
v 0.050000 0.350000 -2.100000
v 0.000000 0.400000 -2.050000
v 0.000000 0.450000 -2.050000
v 0.000000 0.400000 -2.100000
v 0.000000 0.450000 -2.100000
v 0.050000 0.400000 -2.050000
v 0.050000 0.450000 -2.050000
v 0.050000 0.400000 -2.100000
v 0.050000 0.450000 -2.100000
v 0.000000 0.500000 -2.050000
v 0.000000 0.500000 -2.100000
v 0.050000 0.500000 -2.050000
v 0.050000 0.500000 -2.100000
v 0.000000 0.250000 -2.150000
v 0.050000 0.250000 -2.150000
v 0.000000 0.300000 -2.150000
v 0.000000 0.350000 -2.150000
v 0.050000 0.300000 -2.150000
v 0.050000 0.350000 -2.150000
v 0.000000 0.400000 -2.150000
v 0.000000 0.450000 -2.150000
v 0.050000 0.400000 -2.150000
v 0.050000 0.450000 -2.150000
v 0.000000 0.500000 -2.150000
v 0.050000 0.500000 -2.150000
v 0.100000 0.300000 -1.700000
v 0.100000 0.350000 -1.700000
v 0.100000 0.400000 -1.700000
v 0.100000 0.450000 -1.700000
v 0.150000 0.400000 -1.700000
v 0.100000 0.500000 -1.700000
v 0.100000 0.250000 -1.750000
v 0.100000 0.250000 -1.800000
v 0.150000 0.250000 -1.750000
v 0.100000 0.300000 -1.750000
v 0.100000 0.350000 -1.750000
v 0.100000 0.300000 -1.800000
v 0.100000 0.350000 -1.800000
v 0.100000 0.400000 -1.750000
v 0.100000 0.450000 -1.750000
v 0.100000 0.400000 -1.800000
v 0.100000 0.450000 -1.800000
v 0.150000 0.400000 -1.750000
v 0.150000 0.450000 -1.750000
v 0.150000 0.400000 -1.800000
v 0.150000 0.450000 -1.800000
v 0.100000 0.500000 -1.750000
v 0.100000 0.500000 -1.800000
v 0.100000 0.250000 -1.850000
v 0.100000 0.200000 -1.900000
v 0.100000 0.250000 -1.900000
v 0.100000 0.300000 -1.850000
v 0.100000 0.350000 -1.850000
v 0.100000 0.300000 -1.900000
v 0.100000 0.350000 -1.900000
v 0.150000 0.350000 -1.850000
v 0.150000 0.350000 -1.900000
v 0.100000 0.400000 -1.850000
v 0.100000 0.450000 -1.850000
v 0.100000 0.400000 -1.900000
v 0.100000 0.450000 -1.900000
v 0.150000 0.400000 -1.850000
v 0.150000 0.450000 -1.850000
v 0.150000 0.400000 -1.900000
v 0.150000 0.450000 -1.900000
v 0.100000 0.500000 -1.850000
v 0.100000 0.500000 -1.900000
v 0.100000 0.200000 -1.950000
v 0.100000 0.250000 -1.950000
v 0.100000 0.200000 -2.000000
v 0.100000 0.250000 -2.000000
v 0.100000 0.300000 -1.950000
v 0.100000 0.350000 -1.950000
v 0.100000 0.300000 -2.000000
v 0.100000 0.350000 -2.000000
v 0.150000 0.350000 -1.950000
v 0.150000 0.350000 -2.000000
v 0.100000 0.400000 -1.950000
v 0.100000 0.450000 -1.950000
v 0.100000 0.400000 -2.000000
v 0.100000 0.450000 -2.000000
v 0.150000 0.400000 -1.950000
v 0.150000 0.450000 -1.950000
v 0.150000 0.400000 -2.000000
v 0.150000 0.450000 -2.000000
v 0.100000 0.500000 -1.950000
v 0.100000 0.500000 -2.000000
v 0.100000 0.200000 -2.050000
v 0.100000 0.250000 -2.050000
v 0.100000 0.250000 -2.100000
v 0.100000 0.300000 -2.050000
v 0.100000 0.350000 -2.050000
v 0.100000 0.300000 -2.100000
v 0.100000 0.350000 -2.100000
v 0.150000 0.350000 -2.050000
v 0.100000 0.400000 -2.050000
v 0.100000 0.450000 -2.050000
v 0.100000 0.400000 -2.100000
v 0.100000 0.450000 -2.100000
v 0.150000 0.400000 -2.050000
v 0.150000 0.450000 -2.050000
v 0.150000 0.400000 -2.100000
v 0.150000 0.450000 -2.100000
v 0.100000 0.500000 -2.050000
v 0.100000 0.500000 -2.100000
v 0.100000 0.350000 -2.150000
v 0.100000 0.400000 -2.150000
v 0.100000 0.450000 -2.150000
