# Blender 5.1.1
# www.blender.org
o AirVolume
v -0.730842 0.238913 1.055659
v -0.480842 -0.011087 1.555659
v -0.480842 0.238913 1.805659
v -0.480842 0.238913 1.555659
v -0.480842 -0.011087 1.305659
v -0.480842 0.238913 1.305659
v -0.480842 -0.261087 1.055659
v -0.480842 -0.011087 1.055659
v -0.480842 0.238913 1.055659
v -0.480842 -0.261087 0.805659
v -0.480842 -0.011087 0.805659
v -0.480842 -0.261087 0.555659
v -0.480842 -0.011087 0.555659
v -0.480842 0.238913 0.555659
v -0.480842 -0.261087 0.305659
v -0.480842 -0.011087 0.305659
v -0.480842 0.238913 0.305659
v -0.230842 0.238913 2.305659
v -0.230842 -0.011087 2.055659
v -0.230842 0.238913 2.055659
v -0.230842 -0.011087 1.805659
v -0.230842 -0.261087 1.555659
v -0.230842 -0.011087 1.555659
v -0.230842 0.238913 1.805659
v -0.230842 0.238913 1.555659
v -0.230842 -0.261087 1.305659
v -0.230842 -0.011087 1.305659
v -0.230842 0.238913 1.305659
v -0.230842 -0.261087 1.055659
v -0.230842 -0.011087 1.055659
v -0.230842 0.238913 1.055659
v -0.230842 -0.261087 0.805659
v -0.230842 -0.011087 0.805659
v -0.230842 -0.261087 0.555659
v -0.230842 -0.011087 0.555659
v -0.230842 0.238913 0.555659
v -0.230842 -0.261087 0.305659
v -0.230842 -0.011087 0.305659
v -0.230842 0.238913 0.305659
v -0.480842 -0.261087 0.055659
v -0.480842 -0.011087 0.055659
v -0.480842 -0.261087 -0.194341
v -0.480842 -0.011087 -0.194341
v -0.480842 0.238913 0.055659
v -0.480842 0.238913 -0.194341
v -0.480842 -0.261087 -0.444341
v -0.480842 -0.011087 -0.444341
v -0.480842 0.238913 -0.444341
v -0.480842 -0.261087 -0.694341
v -0.480842 -0.011087 -0.694341
v -0.480842 0.238913 -0.694341
v -0.480842 -0.261087 -0.944341
v -0.480842 -0.011087 -0.944341
v -0.480842 0.238913 -0.944341
v -0.480842 -0.261087 -1.194341
v -0.480842 -0.011087 -1.194341
v -0.480842 0.238913 -1.194341
v -0.230842 -0.261087 0.055659
v -0.230842 -0.011087 0.055659
v -0.230842 -0.261087 -0.194341
v -0.230842 -0.011087 -0.194341
v -0.230842 0.238913 0.055659
v -0.230842 0.238913 -0.194341
v -0.230842 -0.261087 -0.444341
v -0.230842 -0.011087 -0.444341
v -0.230842 0.238913 -0.444341
v -0.230842 -0.261087 -0.694341
v -0.230842 -0.011087 -0.694341
v -0.230842 0.238913 -0.694341
v -0.230842 -0.261087 -0.944341
v -0.230842 -0.011087 -0.944341
v -0.230842 0.238913 -0.944341
v -0.230842 -0.261087 -1.194341
v -0.230842 -0.011087 -1.194341
v -0.230842 0.238913 -1.194341
v -0.230842 -0.261087 -1.444341
v -0.230842 -0.011087 -1.444341
v -0.230842 0.238913 -1.444341
v -0.230842 -0.261087 -1.694341
v -0.230842 -0.011087 -1.694341
v -0.230842 0.238913 -1.694341
v 0.019158 0.238913 2.305659
v 0.019158 -0.011087 2.055659
v 0.269158 -0.011087 2.055659
v 0.019158 0.238913 2.055659
v 0.269158 0.238913 2.055659
v 0.019158 -0.261087 1.805659
v 0.019158 -0.011087 1.805659
v 0.019158 -0.261087 1.555659
v 0.019158 -0.011087 1.555659
v 0.269158 -0.011087 1.805659
v 0.269158 -0.261087 1.555659
v 0.269158 -0.011087 1.555659
v 0.019158 0.238913 1.805659
v 0.019158 0.238913 1.555659
v 0.269158 0.238913 1.805659
v 0.269158 0.238913 1.555659
v 0.019158 -0.261087 1.305659
v 0.019158 -0.011087 1.305659
v 0.269158 -0.261087 1.305659
v 0.269158 -0.011087 1.305659
v 0.019158 0.238913 1.305659
v 0.269158 0.238913 1.305659
v 0.019158 -0.261087 1.055659
v 0.019158 -0.011087 1.055659
v 0.269158 -0.261087 1.055659
v 0.269158 -0.011087 1.055659
v 0.019158 0.238913 1.055659
v 0.269158 0.238913 1.055659
v 0.019158 -0.261087 0.805659
v 0.019158 -0.011087 0.805659
v 0.269158 -0.261087 0.805659
v 0.269158 -0.011087 0.805659
v 0.019158 -0.261087 0.555659
v 0.019158 -0.011087 0.555659
v 0.269158 -0.261087 0.555659
v 0.269158 -0.011087 0.555659
v 0.019158 0.238913 0.555659
v 0.269158 0.238913 0.555659
v 0.019158 -0.261087 0.305659
v 0.019158 -0.011087 0.305659
v 0.269158 -0.261087 0.305659
v 0.269158 -0.011087 0.305659
v 0.019158 0.238913 0.305659
v 0.269158 0.238913 0.305659
v 0.519158 -0.011087 1.555659
v 0.519158 0.238913 1.805659
v 0.519158 0.238913 1.555659
v 0.519158 -0.011087 1.305659
v 0.519158 0.238913 1.305659
v 0.519158 -0.011087 1.055659
v 0.519158 0.238913 1.055659
v 0.519158 -0.261087 0.805659
v 0.519158 -0.011087 0.805659
v 0.519158 -0.261087 0.555659
v 0.519158 -0.011087 0.555659
v 0.519158 0.238913 0.555659
v 0.519158 -0.261087 0.305659
v 0.519158 -0.011087 0.305659
v 0.519158 0.238913 0.305659
v 0.019158 -0.261087 0.055659
v 0.019158 -0.011087 0.055659
v 0.019158 -0.261087 -0.194341
v 0.019158 -0.011087 -0.194341
v 0.269158 -0.261087 0.055659
v 0.269158 -0.011087 0.055659
v 0.269158 -0.261087 -0.194341
v 0.269158 -0.011087 -0.194341
v 0.019158 0.238913 0.055659
v 0.019158 0.238913 -0.194341
v 0.269158 0.238913 0.055659
v 0.269158 0.238913 -0.194341
v 0.019158 -0.261087 -0.444341
v 0.019158 -0.011087 -0.444341
v 0.269158 -0.261087 -0.444341
v 0.269158 -0.011087 -0.444341
v 0.019158 0.238913 -0.444341
v 0.269158 0.238913 -0.444341
v 0.019158 -0.261087 -0.694341
v 0.019158 -0.011087 -0.694341
v 0.269158 -0.261087 -0.694341
v 0.269158 -0.011087 -0.694341
v 0.019158 0.238913 -0.694341
v 0.269158 0.238913 -0.694341
v 0.019158 -0.261087 -0.944341
v 0.019158 -0.011087 -0.944341
v 0.269158 -0.261087 -0.944341
v 0.269158 -0.011087 -0.944341
v 0.019158 0.238913 -0.944341
v 0.269158 0.238913 -0.944341
v 0.019158 -0.261087 -1.194341
v 0.019158 -0.011087 -1.194341
v 0.269158 -0.261087 -1.194341
v 0.269158 -0.011087 -1.194341
v 0.019158 0.238913 -1.194341
v 0.269158 0.238913 -1.194341
v 0.019158 -0.261087 -1.444341
v 0.019158 -0.011087 -1.444341
v 0.269158 -0.261087 -1.444341
v 0.269158 -0.011087 -1.444341
v 0.019158 0.238913 -1.444341
v 0.269158 0.238913 -1.444341
v 0.019158 -0.261087 -1.694341
v 0.019158 -0.011087 -1.694341
v 0.269158 -0.261087 -1.694341
v 0.269158 -0.011087 -1.694341
v 0.019158 0.238913 -1.694341
v 0.269158 0.238913 -1.694341
v 0.519158 -0.261087 0.055659
v 0.519158 -0.011087 0.055659
v 0.519158 -0.261087 -0.194341
v 0.519158 -0.011087 -0.194341
v 0.519158 0.238913 0.055659
v 0.519158 0.238913 -0.194341
v 0.519158 -0.261087 -0.444341
v 0.519158 -0.011087 -0.444341
v 0.519158 0.238913 -0.444341
v 0.519158 -0.261087 -0.694341
v 0.519158 -0.011087 -0.694341
v 0.519158 0.238913 -0.694341
v 0.519158 -0.261087 -0.944341
v 0.519158 -0.011087 -0.944341
v 0.519158 0.238913 -0.944341
v 0.519158 -0.261087 -1.194341
v 0.519158 -0.011087 -1.194341
v 0.519158 0.238913 -1.194341
