# Blender 5.2.0 LTS
# www.blender.org
mtllib cube.mtl
o Cube
o Cube.001
v 1.000000 1.000000 -1.000000
v 1.000000 -1.000000 -1.000000
v -1.000000 1.000000 -1.000000
v -1.000000 -1.000000 -1.000000
vn -0.0000 -0.0000 -1.0000
vt 0.000865 -0.002054
vt 0.000865 0.452217
vt 0.508209 0.452217
vt 0.508209 -0.002054
s 1
usemtl Material
f 4/1/1 3/2/1 1/3/1 2/4/1
o Cube.002
v -1.000000 1.000000 -1.000000
v -1.000000 -1.000000 -1.000000
v -1.000000 1.000000 1.000000
v -1.000000 -1.000000 1.000000
vn -1.0000 -0.0000 -0.0000
vt 0.476236 0.476236
vt 0.476236 0.979157
vt 1.020843 0.979157
vt 1.020843 0.476236
s 1
usemtl Material
f 8/5/2 7/6/2 5/7/2 6/8/2
o Cube.003
v 1.000000 1.000000 -1.000000
v 1.000000 1.000000 1.000000
v -1.000000 1.000000 -1.000000
v -1.000000 1.000000 1.000000
vn -0.0000 1.0000 -0.0000
vt -0.007902 0.991053
vt 0.536662 0.991053
vt 0.536662 0.465570
vt -0.007902 0.465570
s 1
usemtl Material
f 9/9/3 11/10/3 12/11/3 10/12/3
o Cube.004
v 1.000000 1.000000 1.000000
v 1.000000 -1.000000 1.000000
v -1.000000 1.000000 1.000000
v -1.000000 -1.000000 1.000000
vn -0.0000 -0.0000 1.0000
vt 0.502922 -0.001082
vt 0.502922 0.452476
vt 0.000000 0.452476
vt 0.000000 -0.001082
s 1
usemtl Material
f 14/13/4 13/14/4 15/15/4 16/16/4
o Cube.005
v 1.000000 1.000000 -1.000000
v 1.000000 -1.000000 -1.000000
v 1.000000 1.000000 1.000000
v 1.000000 -1.000000 1.000000
vn 1.0000 -0.0000 -0.0000
vt 1.020843 0.476236
vt 1.020843 0.979157
vt 0.476236 0.979157
vt 0.476236 0.476236
s 1
usemtl Material
f 18/17/5 17/18/5 19/19/5 20/20/5
o Cube.006
v 1.000000 -1.000000 -1.000000
v 1.000000 -1.000000 1.000000
v -1.000000 -1.000000 -1.000000
v -1.000000 -1.000000 1.000000
vn -0.0000 -1.0000 -0.0000
vt 0.493776 0.998272
vt 0.000533 0.998272
vt 0.000533 0.450969
vt 0.493776 0.450969
s 1
usemtl Material
f 23/21/6 21/22/6 22/23/6 24/24/6
