# Blender 5.1.1
# www.blender.org
o Volume.001
v -0.250000 1.051815 -3.178216
v -0.250000 1.051815 -3.428216
v -0.250000 1.301815 -3.428216
v -0.250000 0.801815 -3.678216
v -0.250000 1.051815 -3.678216
v -0.250000 1.301815 -3.678216
v -0.250000 0.801815 -3.928216
v -0.250000 1.051815 -3.928216
v -0.250000 1.301815 -3.928216
v -0.250000 1.051815 -4.178216
v 0.000000 -0.698185 -3.678216
v 0.000000 -0.448185 -3.678216
v 0.000000 -0.198185 -3.678216
v 0.000000 0.051815 -3.678216
v 0.000000 0.301815 -3.678216
v 0.000000 -0.198185 -3.928216
v 0.000000 1.051815 -3.178216
v 0.000000 0.551815 -3.428216
v 0.000000 1.051815 -3.428216
v 0.000000 1.301815 -3.428216
v 0.000000 0.551815 -3.678216
v 0.000000 0.801815 -3.678216
v 0.000000 1.051815 -3.678216
v 0.000000 1.301815 -3.678216
v 0.000000 0.801815 -3.928216
v 0.000000 1.051815 -3.928216
v 0.000000 1.301815 -3.928216
v 0.250000 1.051815 -3.178216
v 0.250000 1.051815 -3.428216
v 0.250000 1.301815 -3.428216
v 0.250000 0.801815 -3.678216
v 0.250000 1.051815 -3.678216
v 0.250000 1.301815 -3.678216
v 0.250000 0.801815 -3.928216
v 0.250000 1.051815 -3.928216
v 0.250000 1.301815 -3.928216
v 0.000000 1.051815 -4.178216
v 0.250000 1.051815 -4.178216
