# Blender 5.1.1
# www.blender.org
o Volume
v -0.750000 -0.250000 1.250000
v -0.750000 -0.250000 1.000000
v -0.750000 -0.250000 0.750000
v -0.750000 -0.250000 0.500000
v -0.750000 -0.250000 0.250000
v -0.500000 -0.250000 1.500000
v -0.500000 -0.250000 1.250000
v -0.500000 -0.250000 1.000000
v -0.500000 -0.250000 0.750000
v -0.500000 -0.250000 0.500000
v -0.500000 -0.250000 0.250000
v -0.250000 -0.250000 1.750000
v -0.250000 -0.250000 1.500000
v -0.250000 -0.250000 1.250000
v -0.250000 -0.250000 1.000000
v -0.250000 -0.250000 0.750000
v -0.250000 -0.250000 0.500000
v -0.250000 -0.250000 0.250000
v -0.750000 0.500000 2.250000
v -0.750000 0.500000 2.000000
v -0.500000 0.500000 2.500000
v -0.500000 0.250000 2.250000
v -0.500000 0.500000 2.250000
v -0.500000 0.250000 2.000000
v -0.500000 0.500000 2.000000
v -0.250000 0.500000 2.750000
v -0.250000 0.250000 2.500000
v -0.250000 0.500000 2.500000
v -0.250000 0.000000 2.250000
v -0.250000 0.250000 2.250000
v -0.250000 0.500000 2.250000
v -0.250000 0.000000 2.000000
v -0.250000 0.250000 2.000000
v -0.250000 0.500000 2.000000
v -1.250000 0.500000 1.000000
v -1.250000 0.500000 0.750000
v -1.250000 0.500000 0.500000
v -1.250000 0.500000 0.250000
v -1.000000 0.500000 1.750000
v -1.000000 0.250000 1.500000
v -1.000000 0.500000 1.500000
v -1.000000 0.250000 1.250000
v -1.000000 0.500000 1.250000
v -1.000000 0.000000 1.000000
v -1.000000 0.250000 1.000000
v -1.000000 0.500000 1.000000
v -1.000000 0.000000 0.750000
v -1.000000 0.250000 0.750000
v -1.000000 0.500000 0.750000
v -1.000000 0.000000 0.500000
v -1.000000 0.250000 0.500000
v -1.000000 0.500000 0.500000
v -1.000000 0.000000 0.250000
v -1.000000 0.250000 0.250000
v -1.000000 0.500000 0.250000
v -0.750000 0.250000 1.750000
v -0.750000 0.500000 1.750000
v -0.750000 0.000000 1.500000
v -0.750000 0.250000 1.500000
v -0.750000 0.500000 1.500000
v -0.750000 0.000000 1.250000
v -0.750000 0.250000 1.250000
v -0.750000 0.500000 1.250000
v -0.750000 0.000000 1.000000
v -0.750000 0.250000 1.000000
v -0.750000 0.500000 1.000000
v -0.750000 0.000000 0.750000
v -0.750000 0.250000 0.750000
v -0.750000 0.500000 0.750000
v -0.750000 0.000000 0.500000
v -0.750000 0.250000 0.500000
v -0.750000 0.500000 0.500000
v -0.750000 0.000000 0.250000
v -0.750000 0.250000 0.250000
v -0.750000 0.500000 0.250000
v -0.500000 0.000000 1.750000
v -0.500000 0.250000 1.750000
v -0.500000 0.500000 1.750000
v -0.500000 0.000000 1.500000
v -0.500000 0.250000 1.500000
v -0.500000 0.500000 1.500000
v -0.500000 0.000000 1.250000
v -0.500000 0.250000 1.250000
v -0.500000 0.500000 1.250000
v -0.500000 0.000000 1.000000
v -0.500000 0.250000 1.000000
v -0.500000 0.500000 1.000000
v -0.500000 0.000000 0.750000
v -0.500000 0.250000 0.750000
v -0.500000 0.500000 0.750000
v -0.500000 0.000000 0.500000
v -0.500000 0.250000 0.500000
v -0.500000 0.500000 0.500000
v -0.500000 0.000000 0.250000
v -0.500000 0.250000 0.250000
v -0.500000 0.500000 0.250000
v -0.250000 0.000000 1.750000
v -0.250000 0.250000 1.750000
v -0.250000 0.500000 1.750000
v -0.250000 0.000000 1.500000
v -0.250000 0.250000 1.500000
v -0.250000 0.500000 1.500000
v -0.250000 0.000000 1.250000
v -0.250000 0.250000 1.250000
v -0.250000 0.500000 1.250000
v -0.250000 0.000000 1.000000
v -0.250000 0.250000 1.000000
v -0.250000 0.500000 1.000000
v -0.250000 0.000000 0.750000
v -0.250000 0.250000 0.750000
v -0.250000 0.500000 0.750000
v -0.250000 0.000000 0.500000
v -0.250000 0.250000 0.500000
v -0.250000 0.500000 0.500000
v -0.250000 0.000000 0.250000
v -0.250000 0.250000 0.250000
v -0.250000 0.500000 0.250000
v -0.750000 -0.250000 0.000000
v -0.750000 -0.250000 -0.250000
v -0.750000 -0.250000 -0.500000
v -0.750000 -0.250000 -0.750000
v -0.750000 -0.250000 -1.000000
v -0.750000 -0.250000 -1.250000
v -0.750000 -0.250000 -1.500000
v -0.500000 -0.250000 0.000000
v -0.500000 -0.250000 -0.250000
v -0.500000 -0.250000 -0.500000
v -0.500000 -0.250000 -0.750000
v -0.500000 -0.250000 -1.000000
v -0.500000 -0.250000 -1.250000
v -0.500000 -0.250000 -1.500000
v -0.250000 -0.250000 0.000000
v -0.250000 -0.250000 -0.250000
v -0.250000 -0.250000 -0.500000
v -0.250000 -0.250000 -0.750000
v -0.250000 -0.250000 -1.000000
v -0.250000 -0.250000 -1.250000
v -0.250000 -0.250000 -1.500000
v -1.250000 0.500000 0.000000
v -1.250000 0.500000 -0.250000
v -1.250000 0.500000 -0.500000
v -1.250000 0.500000 -0.750000
v -1.250000 0.500000 -1.000000
v -1.250000 0.500000 -1.250000
v -1.250000 0.500000 -1.500000
v -1.000000 0.000000 0.000000
v -1.000000 0.250000 0.000000
v -1.000000 0.500000 0.000000
v -1.000000 0.000000 -0.250000
v -1.000000 0.250000 -0.250000
v -1.000000 0.500000 -0.250000
v -1.000000 0.000000 -0.500000
v -1.000000 0.250000 -0.500000
v -1.000000 0.500000 -0.500000
v -1.000000 0.000000 -0.750000
v -1.000000 0.250000 -0.750000
v -1.000000 0.500000 -0.750000
v -1.000000 0.000000 -1.000000
v -1.000000 0.250000 -1.000000
v -1.000000 0.500000 -1.000000
v -1.000000 0.000000 -1.250000
v -1.000000 0.250000 -1.250000
v -1.000000 0.500000 -1.250000
v -1.000000 0.250000 -1.500000
v -1.000000 0.500000 -1.500000
v -0.750000 0.000000 0.000000
v -0.750000 0.250000 0.000000
v -0.750000 0.500000 0.000000
v -0.750000 0.000000 -0.250000
v -0.750000 0.250000 -0.250000
v -0.750000 0.500000 -0.250000
v -0.750000 0.000000 -0.500000
v -0.750000 0.250000 -0.500000
v -0.750000 0.500000 -0.500000
v -0.750000 0.000000 -0.750000
v -0.750000 0.250000 -0.750000
v -0.750000 0.500000 -0.750000
v -0.750000 0.000000 -1.000000
v -0.750000 0.250000 -1.000000
v -0.750000 0.500000 -1.000000
v -0.750000 0.000000 -1.250000
v -0.750000 0.250000 -1.250000
v -0.750000 0.500000 -1.250000
v -0.750000 0.000000 -1.500000
v -0.750000 0.250000 -1.500000
v -0.750000 0.500000 -1.500000
v -0.500000 0.000000 0.000000
v -0.500000 0.250000 0.000000
v -0.500000 0.500000 0.000000
v -0.500000 0.000000 -0.250000
v -0.500000 0.250000 -0.250000
v -0.500000 0.500000 -0.250000
v -0.500000 0.000000 -0.500000
v -0.500000 0.250000 -0.500000
v -0.500000 0.500000 -0.500000
v -0.500000 0.000000 -0.750000
v -0.500000 0.250000 -0.750000
v -0.500000 0.500000 -0.750000
v -0.500000 0.000000 -1.000000
v -0.500000 0.250000 -1.000000
v -0.500000 0.500000 -1.000000
v -0.500000 0.000000 -1.250000
v -0.500000 0.250000 -1.250000
v -0.500000 0.500000 -1.250000
v -0.500000 0.000000 -1.500000
v -0.500000 0.250000 -1.500000
v -0.500000 0.500000 -1.500000
v -0.250000 0.000000 0.000000
v -0.250000 0.250000 0.000000
v -0.250000 0.500000 0.000000
v -0.250000 0.000000 -0.250000
v -0.250000 0.250000 -0.250000
v -0.250000 0.500000 -0.250000
v -0.250000 0.000000 -0.500000
v -0.250000 0.250000 -0.500000
v -0.250000 0.500000 -0.500000
v -0.250000 0.000000 -0.750000
v -0.250000 0.250000 -0.750000
v -0.250000 0.500000 -0.750000
v -0.250000 0.000000 -1.000000
v -0.250000 0.250000 -1.000000
v -0.250000 0.500000 -1.000000
v -0.250000 0.000000 -1.250000
v -0.250000 0.250000 -1.250000
v -0.250000 0.500000 -1.250000
v -0.250000 0.000000 -1.500000
v -0.250000 0.250000 -1.500000
v -0.250000 0.500000 -1.500000
v -1.000000 0.250000 -1.750000
v -1.000000 0.500000 -1.750000
v -1.000000 0.250000 -2.000000
v -1.000000 0.500000 -2.000000
v -1.000000 0.500000 -2.250000
v -1.000000 0.500000 -2.500000
v -0.750000 0.000000 -1.750000
v -0.750000 0.250000 -1.750000
v -0.750000 0.500000 -1.750000
v -0.750000 0.000000 -2.000000
v -0.750000 0.250000 -2.000000
v -0.750000 0.500000 -2.000000
v -0.750000 0.250000 -2.250000
v -0.750000 0.500000 -2.250000
v -0.750000 0.500000 -2.500000
v -0.750000 0.500000 -2.750000
v -0.500000 0.000000 -1.750000
v -0.500000 0.250000 -1.750000
v -0.500000 0.500000 -1.750000
v -0.500000 0.000000 -2.000000
v -0.500000 0.250000 -2.000000
v -0.500000 0.500000 -2.000000
v -0.500000 0.250000 -2.250000
v -0.500000 0.500000 -2.250000
v -0.500000 0.500000 -2.500000
v -0.500000 0.500000 -2.750000
v -0.250000 0.000000 -1.750000
v -0.250000 0.250000 -1.750000
v -0.250000 0.500000 -1.750000
v -0.250000 0.000000 -2.000000
v -0.250000 0.250000 -2.000000
v -0.250000 0.500000 -2.000000
v -0.250000 0.250000 -2.250000
v -0.250000 0.500000 -2.250000
v -0.250000 0.500000 -2.500000
v -0.250000 0.500000 -2.750000
v 0.000000 -0.250000 1.750000
v 0.000000 -0.250000 1.500000
v 0.000000 -0.250000 1.250000
v 0.000000 -0.250000 1.000000
v 0.000000 -0.250000 0.750000
v 0.000000 -0.250000 0.500000
v 0.000000 -0.250000 0.250000
v 0.250000 -0.250000 1.750000
v 0.250000 -0.250000 1.500000
v 0.250000 -0.250000 1.250000
v 0.250000 -0.250000 1.000000
v 0.250000 -0.250000 0.750000
v 0.250000 -0.250000 0.500000
v 0.250000 -0.250000 0.250000
v 0.500000 -0.250000 1.500000
v 0.500000 -0.250000 1.250000
v 0.500000 -0.250000 1.000000
v 0.500000 -0.250000 0.750000
v 0.500000 -0.250000 0.500000
v 0.500000 -0.250000 0.250000
v 0.750000 -0.250000 1.250000
v 0.750000 -0.250000 1.000000
v 0.750000 -0.250000 0.750000
v 0.750000 -0.250000 0.500000
v 0.750000 -0.250000 0.250000
v 0.000000 0.500000 3.000000
v 0.000000 0.250000 2.750000
v 0.000000 0.500000 2.750000
v 0.000000 0.000000 2.500000
v 0.000000 0.250000 2.500000
v 0.000000 0.500000 2.500000
v 0.000000 0.000000 2.250000
v 0.000000 0.250000 2.250000
v 0.000000 0.500000 2.250000
v 0.000000 0.000000 2.000000
v 0.000000 0.250000 2.000000
v 0.000000 0.500000 2.000000
v 0.250000 0.500000 2.750000
v 0.250000 0.250000 2.500000
v 0.250000 0.500000 2.500000
v 0.250000 0.000000 2.250000
v 0.250000 0.250000 2.250000
v 0.250000 0.500000 2.250000
v 0.250000 0.000000 2.000000
v 0.250000 0.250000 2.000000
v 0.250000 0.500000 2.000000
v 0.500000 0.500000 2.500000
v 0.500000 0.250000 2.250000
v 0.500000 0.500000 2.250000
v 0.500000 0.250000 2.000000
v 0.500000 0.500000 2.000000
v 0.750000 0.500000 2.250000
v 0.750000 0.500000 2.000000
v 0.000000 0.000000 1.750000
v 0.000000 0.250000 1.750000
v 0.000000 0.500000 1.750000
v 0.000000 0.000000 1.500000
v 0.000000 0.250000 1.500000
v 0.000000 0.500000 1.500000
v 0.000000 0.000000 1.250000
v 0.000000 0.250000 1.250000
v 0.000000 0.500000 1.250000
v 0.000000 0.000000 1.000000
v 0.000000 0.250000 1.000000
v 0.000000 0.500000 1.000000
v 0.000000 0.000000 0.750000
v 0.000000 0.250000 0.750000
v 0.000000 0.500000 0.750000
v 0.000000 0.000000 0.500000
v 0.000000 0.250000 0.500000
v 0.000000 0.500000 0.500000
v 0.000000 0.000000 0.250000
v 0.000000 0.250000 0.250000
v 0.000000 0.500000 0.250000
v 0.250000 0.000000 1.750000
v 0.250000 0.250000 1.750000
v 0.250000 0.500000 1.750000
v 0.250000 0.000000 1.500000
v 0.250000 0.250000 1.500000
v 0.250000 0.500000 1.500000
v 0.250000 0.000000 1.250000
v 0.250000 0.250000 1.250000
v 0.250000 0.500000 1.250000
v 0.250000 0.000000 1.000000
v 0.250000 0.250000 1.000000
v 0.250000 0.500000 1.000000
v 0.250000 0.000000 0.750000
v 0.250000 0.250000 0.750000
v 0.250000 0.500000 0.750000
v 0.250000 0.000000 0.500000
v 0.250000 0.250000 0.500000
v 0.250000 0.500000 0.500000
v 0.250000 0.000000 0.250000
v 0.250000 0.250000 0.250000
v 0.250000 0.500000 0.250000
v 0.500000 0.000000 1.750000
v 0.500000 0.250000 1.750000
v 0.500000 0.500000 1.750000
v 0.500000 0.000000 1.500000
v 0.500000 0.250000 1.500000
v 0.500000 0.500000 1.500000
v 0.500000 0.000000 1.250000
v 0.500000 0.250000 1.250000
v 0.500000 0.500000 1.250000
v 0.500000 0.000000 1.000000
v 0.500000 0.250000 1.000000
v 0.500000 0.500000 1.000000
v 0.500000 0.000000 0.750000
v 0.500000 0.250000 0.750000
v 0.500000 0.500000 0.750000
v 0.500000 0.000000 0.500000
v 0.500000 0.250000 0.500000
v 0.500000 0.500000 0.500000
v 0.500000 0.000000 0.250000
v 0.500000 0.250000 0.250000
v 0.500000 0.500000 0.250000
v 0.750000 0.250000 1.750000
v 0.750000 0.500000 1.750000
v 0.750000 0.000000 1.500000
v 0.750000 0.250000 1.500000
v 0.750000 0.500000 1.500000
v 0.750000 0.000000 1.250000
v 0.750000 0.250000 1.250000
v 0.750000 0.500000 1.250000
v 0.750000 0.000000 1.000000
v 0.750000 0.250000 1.000000
v 0.750000 0.500000 1.000000
v 0.750000 0.000000 0.750000
v 0.750000 0.250000 0.750000
v 0.750000 0.500000 0.750000
v 0.750000 0.000000 0.500000
v 0.750000 0.250000 0.500000
v 0.750000 0.500000 0.500000
v 0.750000 0.000000 0.250000
v 0.750000 0.250000 0.250000
v 0.750000 0.500000 0.250000
v 1.000000 0.500000 1.750000
v 1.000000 0.250000 1.500000
v 1.000000 0.500000 1.500000
v 1.000000 0.250000 1.250000
v 1.000000 0.500000 1.250000
v 1.000000 0.250000 1.000000
v 1.000000 0.500000 1.000000
v 1.000000 0.000000 0.750000
v 1.000000 0.250000 0.750000
v 1.000000 0.500000 0.750000
v 1.000000 0.000000 0.500000
v 1.000000 0.250000 0.500000
v 1.000000 0.500000 0.500000
v 1.000000 0.000000 0.250000
v 1.000000 0.250000 0.250000
v 1.000000 0.500000 0.250000
v 1.250000 0.500000 1.000000
v 1.250000 0.500000 0.750000
v 1.250000 0.500000 0.500000
v 1.250000 0.500000 0.250000
v 0.000000 -0.250000 0.000000
v 0.000000 -0.250000 -0.250000
v 0.000000 -0.250000 -0.500000
v 0.000000 -0.250000 -0.750000
v 0.000000 -0.250000 -1.000000
v 0.000000 -0.250000 -1.250000
v 0.000000 -0.250000 -1.500000
v 0.250000 -0.250000 0.000000
v 0.250000 -0.250000 -0.250000
v 0.250000 -0.250000 -0.500000
v 0.250000 -0.250000 -0.750000
v 0.250000 -0.250000 -1.000000
v 0.250000 -0.250000 -1.250000
v 0.250000 -0.250000 -1.500000
v 0.500000 -0.250000 0.000000
v 0.500000 -0.250000 -0.250000
v 0.500000 -0.250000 -0.500000
v 0.500000 -0.250000 -0.750000
v 0.500000 -0.250000 -1.000000
v 0.500000 -0.250000 -1.250000
v 0.500000 -0.250000 -1.500000
v 0.750000 -0.250000 0.000000
v 0.750000 -0.250000 -0.250000
v 0.750000 -0.250000 -0.500000
v 0.750000 -0.250000 -0.750000
v 0.750000 -0.250000 -1.000000
v 0.750000 -0.250000 -1.250000
v 0.750000 -0.250000 -1.500000
v 0.000000 0.000000 0.000000
v 0.000000 0.250000 0.000000
v 0.000000 0.500000 0.000000
v 0.000000 0.000000 -0.250000
v 0.000000 0.250000 -0.250000
v 0.000000 0.500000 -0.250000
v 0.000000 0.000000 -0.500000
v 0.000000 0.250000 -0.500000
v 0.000000 0.500000 -0.500000
v 0.000000 0.000000 -0.750000
v 0.000000 0.250000 -0.750000
v 0.000000 0.500000 -0.750000
v 0.000000 0.000000 -1.000000
v 0.000000 0.250000 -1.000000
v 0.000000 0.500000 -1.000000
v 0.000000 0.000000 -1.250000
v 0.000000 0.250000 -1.250000
v 0.000000 0.500000 -1.250000
v 0.000000 0.000000 -1.500000
v 0.000000 0.250000 -1.500000
v 0.000000 0.500000 -1.500000
v 0.250000 0.000000 0.000000
v 0.250000 0.250000 0.000000
v 0.250000 0.500000 0.000000
v 0.250000 0.000000 -0.250000
v 0.250000 0.250000 -0.250000
v 0.250000 0.500000 -0.250000
v 0.250000 0.000000 -0.500000
v 0.250000 0.250000 -0.500000
v 0.250000 0.500000 -0.500000
v 0.250000 0.000000 -0.750000
v 0.250000 0.250000 -0.750000
v 0.250000 0.500000 -0.750000
v 0.250000 0.000000 -1.000000
v 0.250000 0.250000 -1.000000
v 0.250000 0.500000 -1.000000
v 0.250000 0.000000 -1.250000
v 0.250000 0.250000 -1.250000
v 0.250000 0.500000 -1.250000
v 0.250000 0.000000 -1.500000
v 0.250000 0.250000 -1.500000
v 0.250000 0.500000 -1.500000
v 0.500000 0.000000 0.000000
v 0.500000 0.250000 0.000000
v 0.500000 0.500000 0.000000
v 0.500000 0.000000 -0.250000
v 0.500000 0.250000 -0.250000
v 0.500000 0.500000 -0.250000
v 0.500000 0.000000 -0.500000
v 0.500000 0.250000 -0.500000
v 0.500000 0.500000 -0.500000
v 0.500000 0.000000 -0.750000
v 0.500000 0.250000 -0.750000
v 0.500000 0.500000 -0.750000
v 0.500000 0.000000 -1.000000
v 0.500000 0.250000 -1.000000
v 0.500000 0.500000 -1.000000
v 0.500000 0.000000 -1.250000
v 0.500000 0.250000 -1.250000
v 0.500000 0.500000 -1.250000
v 0.500000 0.000000 -1.500000
v 0.500000 0.250000 -1.500000
v 0.500000 0.500000 -1.500000
v 0.750000 0.000000 0.000000
v 0.750000 0.250000 0.000000
v 0.750000 0.500000 0.000000
v 0.750000 0.000000 -0.250000
v 0.750000 0.250000 -0.250000
v 0.750000 0.500000 -0.250000
v 0.750000 0.000000 -0.500000
v 0.750000 0.250000 -0.500000
v 0.750000 0.500000 -0.500000
v 0.750000 0.000000 -0.750000
v 0.750000 0.250000 -0.750000
v 0.750000 0.500000 -0.750000
v 0.750000 0.000000 -1.000000
v 0.750000 0.250000 -1.000000
v 0.750000 0.500000 -1.000000
v 0.750000 0.000000 -1.250000
v 0.750000 0.250000 -1.250000
v 0.750000 0.500000 -1.250000
v 0.750000 0.000000 -1.500000
v 0.750000 0.250000 -1.500000
v 0.750000 0.500000 -1.500000
v 1.000000 0.000000 0.000000
v 1.000000 0.250000 0.000000
v 1.000000 0.500000 0.000000
v 1.000000 0.000000 -0.250000
v 1.000000 0.250000 -0.250000
v 1.000000 0.500000 -0.250000
v 1.000000 0.000000 -0.500000
v 1.000000 0.250000 -0.500000
v 1.000000 0.500000 -0.500000
v 1.000000 0.000000 -0.750000
v 1.000000 0.250000 -0.750000
v 1.000000 0.500000 -0.750000
v 1.000000 0.000000 -1.000000
v 1.000000 0.250000 -1.000000
v 1.000000 0.500000 -1.000000
v 1.000000 0.250000 -1.250000
v 1.000000 0.500000 -1.250000
v 1.000000 0.250000 -1.500000
v 1.000000 0.500000 -1.500000
v 1.250000 0.500000 0.000000
v 1.250000 0.500000 -0.250000
v 1.250000 0.500000 -0.500000
v 1.250000 0.500000 -0.750000
v 1.250000 0.500000 -1.000000
v 1.250000 0.500000 -1.250000
v 1.250000 0.500000 -1.500000
v 0.000000 0.000000 -1.750000
v 0.000000 0.250000 -1.750000
v 0.000000 0.500000 -1.750000
v 0.000000 0.000000 -2.000000
v 0.000000 0.250000 -2.000000
v 0.000000 0.500000 -2.000000
v 0.000000 0.250000 -2.250000
v 0.000000 0.500000 -2.250000
v 0.000000 0.500000 -2.500000
v 0.000000 0.500000 -2.750000
v 0.250000 0.000000 -1.750000
v 0.250000 0.250000 -1.750000
v 0.250000 0.500000 -1.750000
v 0.250000 0.000000 -2.000000
v 0.250000 0.250000 -2.000000
v 0.250000 0.500000 -2.000000
v 0.250000 0.250000 -2.250000
v 0.250000 0.500000 -2.250000
v 0.250000 0.500000 -2.500000
v 0.250000 0.500000 -2.750000
v 0.500000 0.000000 -1.750000
v 0.500000 0.250000 -1.750000
v 0.500000 0.500000 -1.750000
v 0.500000 0.000000 -2.000000
v 0.500000 0.250000 -2.000000
v 0.500000 0.500000 -2.000000
v 0.500000 0.250000 -2.250000
v 0.500000 0.500000 -2.250000
v 0.500000 0.500000 -2.500000
v 0.500000 0.500000 -2.750000
v 0.750000 0.000000 -1.750000
v 0.750000 0.250000 -1.750000
v 0.750000 0.500000 -1.750000
v 0.750000 0.250000 -2.000000
v 0.750000 0.500000 -2.000000
v 0.750000 0.250000 -2.250000
v 0.750000 0.500000 -2.250000
v 0.750000 0.500000 -2.500000
v 0.750000 0.500000 -2.750000
v 1.000000 0.250000 -1.750000
v 1.000000 0.500000 -1.750000
v 1.000000 0.250000 -2.000000
v 1.000000 0.500000 -2.000000
v 1.000000 0.500000 -2.250000
v 1.000000 0.500000 -2.500000
