# Blender 5.1.1
# www.blender.org
o MotorBoat
v 1.509165 0.480999 -4.570850
v 1.025139 0.397427 -4.484292
v 1.203689 0.367131 -4.452914
v 1.259023 0.186349 -1.192460
v 1.329789 0.462487 -4.551677
v 1.706422 0.503325 -4.593974
v 1.456780 0.512369 -4.603341
v 0.556649 0.186708 -1.346537
v 1.728485 0.606908 -4.701258
v 1.595636 0.187147 -1.488267
v 1.454445 0.409698 -4.497002
v 1.589685 0.481206 -4.571065
v 0.876159 0.448075 -4.536750
v 1.095664 0.635546 -4.730919
v 0.975012 0.186063 -1.069493
v 1.574978 0.185959 -1.024631
v 0.845396 0.580995 -4.674419
v 1.224672 0.593634 -4.687510
v 1.608227 0.633707 -4.729014
v 1.441805 0.639906 -4.735434
v 1.215586 0.651642 -4.747590
v 1.159740 0.568555 -4.661535
v 1.047149 0.608131 -4.702524
v 1.037419 0.511176 -4.602105
v 1.010935 0.466052 -4.555369
v 2.037486 0.407332 -3.762116
v 1.948228 0.291842 -3.839364
v 1.926255 0.298290 -3.909110
v 1.989127 0.416469 -3.908261
v 1.993294 0.268422 -3.681491
v 1.989672 0.371420 -3.841244
v 1.896487 0.321820 -4.025115
v 2.062990 0.477920 -3.794712
v 1.915558 0.515822 -4.269009
v 1.902036 0.441547 -4.184950
v 2.008098 0.535981 -4.036725
v -0.109203 0.186320 -1.179952
v 1.792941 0.426554 -4.473297
v 1.849471 0.488385 -4.413318
v 1.839651 0.620262 -4.659670
v 1.987629 0.566958 -4.146728
v -0.348409 0.185913 -1.004687
v 2.135990 0.394500 -2.892440
v 2.130029 0.356627 -2.836094
v -0.156408 0.186400 -1.214247
v 2.083935 0.230099 -2.877779
v 2.056251 0.269881 -3.235086
v 2.161698 0.407781 -2.704769
v 2.043183 0.248929 -3.289720
v 2.102293 0.265923 -2.819358
v 2.149293 0.350495 -2.649304
v 0.465360 0.185858 -0.981040
v 2.191305 0.435960 -2.525620
v 2.152905 0.483019 -3.017023
v 2.191494 0.495418 -2.701597
v 2.047892 0.316431 -3.448237
v 2.098825 0.458797 -3.437065
v 2.069766 0.331187 -3.294287
v 2.177969 0.500993 -2.844047
v 0.633290 0.184976 -0.602309
v 2.040033 0.326492 -3.552943
v 2.131019 0.457703 -3.137125
v 2.148846 0.489406 -3.074929
v 2.031567 0.287779 -3.506408
v 2.106369 0.422601 -3.251210
v 2.073725 0.408621 -3.506821
v 2.140612 0.243543 -2.229869
v 2.156262 0.279050 -2.050371
v 2.192566 0.371527 -1.743906
v 2.178251 0.311536 -1.608810
v 2.163567 0.275063 -1.742866
v -0.203490 0.186036 -1.057603
v 2.196843 0.366006 -1.529211
v 2.137321 0.206832 -1.949467
v 2.200104 0.386795 -1.637509
v 2.216673 0.432016 -1.530423
v 2.143783 0.272149 -2.439011
v 2.187955 0.386728 -2.091349
v 1.554795 0.184850 -0.547872
v 2.191606 0.389675 -1.986766
v 2.197393 0.397213 -1.854349
v 2.168238 0.355201 -2.474558
v 2.152008 0.293531 -2.374799
v 2.203195 0.468654 -2.464178
v 2.206608 0.430476 -1.890638
v 2.163082 0.308551 -2.128354
v 2.206713 0.415184 -1.708874
v 2.143017 0.298754 -1.007996
v 2.137527 0.431899 -0.438497
v 2.107636 0.260528 -0.749901
v 2.111342 0.298573 -0.647354
v 2.139227 0.413651 -0.527360
v 2.135060 0.307179 -0.885154
v 2.120315 0.272876 -0.847527
v 2.090911 0.219646 -0.714750
v 2.094417 0.186687 -0.880206
v 2.206523 0.452297 -1.178934
v 2.163203 0.478283 -0.562440
v 2.212817 0.436564 -1.314113
v 2.164946 0.408197 -0.850580
v 0.461117 0.185178 -0.688955
v 2.156865 0.414094 -0.731582
v 2.153779 0.288683 -1.173067
v 2.184359 0.357018 -1.277632
v 2.222500 0.447710 -1.387241
v 2.165562 0.471932 -0.614838
v 1.949954 0.210849 -0.133390
v 1.958459 0.254942 -0.090451
v 2.011072 0.238449 -0.276557
v 0.562033 0.184892 -0.565984
v 1.984009 0.312147 -0.078982
v 1.989020 0.191822 -0.282166
v 1.936808 0.268435 -0.003391
v -0.174653 0.186248 -1.148906
v 1.829788 0.250902 0.295393
v 2.046872 0.353838 -0.219638
v 1.977380 0.428076 0.112195
v 2.086711 0.388331 -0.297116
v 1.955093 0.433609 0.191874
v 0.850590 0.184921 -0.578428
v 2.057639 0.451643 -0.111090
v 2.052703 0.481298 -0.051839
v 2.126189 0.438846 -0.349985
v 0.360633 0.184971 -0.599837
v 2.090705 0.365725 -0.343025
v 1.548460 0.285912 0.804127
v 1.671325 0.254563 0.576122
v 1.435749 0.449683 1.197081
v 1.421443 0.293917 1.006618
v 1.515423 0.342217 0.930608
v 1.596450 0.270212 0.710366
v 1.357203 0.269019 1.069624
v 1.497793 0.367060 0.991021
v 1.702877 0.222927 0.485462
v 1.585259 0.326655 0.804082
v 1.793346 0.458885 0.639702
v 1.727758 0.509272 0.807959
v 1.705863 0.457299 0.778831
v 1.825461 0.408618 0.525581
v 1.561790 0.417059 0.961304
v 1.667336 0.396078 0.765060
v 1.796926 0.227912 0.347547
v 0.166999 0.185307 -0.744386
v 1.715206 0.415775 0.712277
v 1.752588 0.361038 0.584118
v -0.108789 0.186022 -1.051748
v 1.040317 0.315619 1.397646
v 1.121170 0.427899 1.489901
v 0.845522 0.598028 1.948779
v 0.949474 0.496777 1.723844
v 0.586088 0.186051 -1.064245
v 1.195199 0.373378 1.354311
v 0.933739 0.410309 1.615507
v 0.965478 0.185053 -0.635182
v 0.848030 0.475336 1.775152
v 1.279619 0.567073 1.529161
v 1.364586 0.526538 1.401355
v 1.148667 0.185272 -0.729215
v 1.284008 0.433473 1.353099
v 1.330159 0.492540 1.388165
v 1.141014 0.541820 1.619897
v 1.279482 0.475836 1.411713
v 1.129359 0.479453 1.549896
v 1.311823 0.368111 1.244132
v 1.714928 0.763988 -4.758004
v 1.482797 0.818918 -4.760830
v 1.752631 0.846465 -4.762249
v 1.416270 0.690300 -4.754211
v 0.678154 0.185511 -0.831905
v 1.177010 0.712419 -4.755349
v -0.215552 0.185636 -0.885720
v 0.869763 0.659823 -4.752642
v 1.475990 0.761921 -4.757897
v 0.901408 0.741702 -4.756856
v -0.036937 0.184806 -0.529142
v 0.852675 0.826250 -4.761208
v 1.639287 0.945368 -4.767338
v 1.100459 0.888907 -4.764432
v 0.203542 0.185773 -0.944850
v 1.553334 0.918119 -4.765936
v 1.066562 0.849651 -4.762412
v 2.006568 0.604473 -4.087645
v 1.955260 0.670794 -4.192296
v 1.855645 0.673195 -4.608108
v 1.134806 0.185417 -0.791872
v 2.013423 0.671451 -3.946051
v 1.906169 0.633369 -4.462176
v 1.987761 0.731079 -3.953873
v 1.915827 0.649065 -4.395059
v 1.965251 0.818429 -3.901761
v 1.878529 0.874607 -4.222380
v 1.828656 0.790762 -4.568783
v 1.845152 0.847166 -4.415563
v 1.827651 0.850063 -4.493554
v 1.917237 0.807786 -4.131306
v 1.795298 0.921239 -4.549021
v 1.871978 0.763746 -4.402466
v 1.896474 0.787836 -4.255361
v 0.421382 0.185502 -0.828403
v 2.125081 0.563082 -3.284103
v 2.088095 0.597910 -3.569289
v 2.107922 0.740574 -2.492539
v 2.109260 0.686586 -2.784163
v 2.087527 0.627974 -3.404582
v 2.127214 0.621453 -2.921902
v 2.138310 0.656060 -2.578329
v 2.099108 0.664977 -3.040930
v 2.187596 0.545021 -2.568393
v 2.145347 0.654019 -2.497816
v 2.117324 0.704293 -2.577102
v 2.152451 0.616717 -2.618335
v 0.046053 0.185296 -0.739565
v 2.060403 0.630099 -3.798008
v 2.075629 0.760365 -2.818843
v 2.065447 0.750923 -3.026049
v 2.016332 0.779210 -3.600033
v 2.081135 0.735129 -2.881648
v 2.056616 0.660809 -3.677870
v 2.032061 0.713884 -3.740468
v 0.294866 0.185541 -0.844795
v -0.085596 0.185759 -0.938552
v 2.052701 0.691148 -3.561770
v 1.995704 0.801231 -3.782668
v 2.066150 0.663758 -3.517813
v 2.072253 0.707828 -3.172259
v 2.204838 0.540424 -1.971820
v 2.179234 0.631361 -1.356575
v 2.185619 0.604815 -1.584513
v 2.222903 0.513773 -1.683414
v 2.191737 0.554004 -2.291706
v 0.934466 0.184797 -0.525087
v 2.167785 0.628132 -1.926870
v 0.181642 0.185136 -0.670884
v 2.171827 0.625640 -1.795491
v 2.204600 0.521572 -2.345494
v 2.142962 0.710719 -1.437820
v 2.168636 0.610844 -2.248265
v 2.092627 0.793092 -2.214060
v 2.133623 0.710817 -1.885028
v 2.164933 0.630680 -2.008956
v 2.161868 0.634537 -2.083369
v 2.107422 0.777471 -1.790145
v 2.133789 0.713776 -1.812291
v 2.110641 0.744369 -2.342100
v 0.807110 0.185294 -0.738937
v 2.114110 0.743296 -2.186553
v 2.138275 0.683045 -2.247539
v 1.537447 0.536324 -3.363290
v 2.144942 0.556229 -0.564762
v 2.136531 0.594589 -0.620852
v 2.158812 0.585536 -0.846102
v 2.034194 0.786096 -0.191753
v 2.080841 0.712699 -0.443452
v 2.155555 0.561399 -0.710353
v 2.191378 0.517601 -0.954408
v 2.129079 0.569639 -0.432524
v 2.169132 0.509499 -0.660284
v 1.589850 0.551345 -3.708371
v -0.304889 0.186767 -1.371775
v 2.126709 0.703492 -1.006765
v 2.117141 0.746419 -1.103611
v 2.090784 0.741789 -0.722630
v -0.420647 0.186765 -1.371063
v 2.050345 0.781201 -0.383316
v 2.170257 0.601073 -1.055990
v 2.132179 0.738809 -1.266942
v 2.088629 0.715718 -0.556037
v 2.143252 0.635614 -0.872737
v 2.221635 0.529527 -1.373903
v 1.225009 0.185377 -0.774386
v 1.932927 0.610039 0.337169
v 1.811327 0.761005 0.700051
v 1.947461 0.549911 0.305161
v 1.839840 0.612191 0.645594
v -0.264715 0.186363 -1.198175
v 1.855093 0.560740 0.608857
v 1.879409 0.536639 0.534649
v 2.145265 0.491025 -0.335550
v 0.857050 0.185580 -0.861745
v 1.910653 0.764948 0.324350
v 1.853163 0.781951 0.531476
v 1.967599 0.667733 0.192711
v 2.044046 0.652993 -0.089921
v 2.057390 0.696989 -0.181855
v 1.990345 0.705569 0.069991
v 2.028780 0.609775 0.008754
v 2.062262 0.567700 -0.082443
v -0.114605 0.185288 -0.736147
v 0.272966 0.186095 -1.083208
v 1.587579 0.547946 1.076519
v 1.462978 0.635352 1.340177
v 1.430594 0.606234 1.376635
v 1.345576 0.840438 1.664527
v 0.494761 0.185281 -0.733386
v 0.116778 0.185748 -0.934136
v 0.089708 0.535654 -3.347899
v 1.470208 0.585836 1.297383
v 1.473615 0.747807 1.391856
v 1.508562 0.771528 1.336919
v 0.061414 0.527532 -3.161313
v 1.392651 0.834899 1.577958
v 1.595409 0.701686 1.153200
v 0.527119 0.185543 -0.845994
v 1.806836 0.564474 0.710518
v 1.670503 0.737994 1.007836
v 1.682980 0.648054 0.970293
v 1.093624 0.718806 1.857810
v 1.156805 0.728212 1.807498
v 1.085002 0.623261 1.771893
v 1.138746 0.656855 1.754286
v 1.035970 0.785761 1.978077
v -0.248570 0.186750 -1.364695
v 0.929370 0.729785 2.023488
v 1.077546 0.766520 1.919937
v 1.362180 0.638310 1.508061
v 1.312450 0.768412 1.657060
v 1.232052 0.758866 1.742851
v 1.145222 0.815970 1.883056
v 1.123127 0.867820 1.945056
v 0.994753 0.884652 2.104666
v 1.617475 0.185046 -0.632080
v 0.716839 0.616596 -4.711292
v 0.267637 0.584550 -4.678101
v 0.230855 0.518155 -4.609333
v 0.276466 0.542410 -4.634455
v 0.225405 0.185454 -0.807429
v 0.132048 0.469870 -4.559323
v 1.177799 0.534107 -3.312363
v 0.331491 0.615373 -4.710025
v -0.093232 0.495327 -4.585690
v -0.048525 0.369852 -4.455733
v -0.107503 0.633393 -4.728689
v 0.604243 0.537382 -3.387585
v 0.006886 0.431398 -4.519477
v 0.314777 0.411194 -4.498551
v 0.750445 0.567868 -4.660823
v 0.517052 0.522387 -4.613717
v 0.742608 0.377306 -4.463452
v 0.570635 0.503749 -4.594413
v 0.468934 0.392971 -4.479678
v 0.302713 0.185958 -1.024390
v 0.681862 0.558658 -4.651284
v 0.714804 0.527042 -4.618538
v 1.756328 0.184892 -0.566116
v -0.016896 0.185144 -0.674261
v 0.185260 0.402690 -4.489744
v -0.257885 0.410978 -4.033632
v -0.290956 0.446441 -3.990053
v -0.216184 0.488452 -4.272403
v -0.218067 0.573846 -4.395350
v -0.334961 0.536205 -3.996119
v 1.327300 0.185321 -0.750242
v -0.292857 0.514808 -4.087331
v 0.548363 0.527784 -3.167097
v -0.268968 0.495627 -4.128491
v -0.116585 0.415393 -4.422692
v -0.228988 0.381695 -4.067233
v -0.142936 0.573662 -4.607392
v 1.217247 0.531840 -3.260276
v -0.204763 0.307339 -4.012191
v -0.150698 0.184978 -0.602948
v -0.120745 0.470616 -4.500625
v -0.153370 0.423892 -4.337863
v -0.416326 0.442002 -3.337774
v -0.452956 0.466496 -3.071477
v -0.473459 0.396243 -2.668685
v -0.421286 0.341208 -2.987077
v 1.480167 0.530872 -3.238039
v -0.452183 0.281631 -2.519974
v -0.475256 0.475108 -2.890325
v -0.428024 0.272057 -2.715499
v -0.415902 0.357914 -3.087591
v -0.507530 0.454762 -2.528998
v -0.443837 0.419516 -3.014221
v -0.429042 0.452942 -3.252695
v 0.580709 0.185449 -0.805576
v -0.359750 0.314407 -3.442096
v -0.371883 0.421355 -3.665394
v -0.404276 0.356273 -3.183954
v -0.388517 0.492738 -3.740284
v -0.397524 0.356684 -3.243874
v 0.029124 0.185734 -0.927906
v -0.389783 0.237756 -2.945599
v -0.388930 0.277996 -3.076682
v -0.421943 0.217035 -2.602521
v 0.719919 0.185396 -0.782837
v -0.419581 0.270865 -2.788483
v -0.514694 0.399253 -1.633971
v -0.483993 0.319366 -1.886663
v -0.498621 0.368471 -1.892791
v -0.513369 0.425140 -1.981061
v -0.503710 0.379697 -1.827801
v -0.528981 0.480060 -2.016413
v -0.523875 0.491861 -2.346001
v -0.537449 0.491435 -1.824554
v -0.494383 0.344532 -1.779716
v -0.492391 0.360172 -2.034775
v -0.497545 0.325199 -1.437789
v 0.717373 0.184905 -0.571687
v -0.474875 0.342398 -2.472232
v 0.294482 0.536072 -3.357502
v -0.480831 0.338023 -2.208663
v -0.462025 0.230728 -1.701753
v -0.465696 0.237261 -1.641342
v -0.467350 0.261650 -1.851265
v 0.127774 0.540928 -3.469051
v -0.476634 0.315016 -2.105915
v -0.441328 0.203957 -2.153499
v -0.474265 0.409396 -0.844427
v -0.539553 0.477656 -1.354014
v -0.427987 0.354461 -0.509147
v -0.446485 0.410067 -0.509880
v 1.029084 0.185126 -0.666607
v -0.454052 0.418509 -0.566848
v -0.490409 0.424655 -0.976852
v -0.452939 0.325909 -0.920338
v -0.481626 0.475944 -0.668757
v -0.475896 0.446696 -0.716156
v -0.433044 0.267867 -0.905432
v -0.468032 0.252372 -1.361020
v -0.513191 0.424792 -1.246700
v -0.454789 0.316316 -0.976581
v -0.438561 0.208795 -1.183974
v -0.505580 0.369337 -1.362309
v 0.397920 0.185718 -0.920854
v -0.048550 0.186519 -1.265525
v 0.207855 0.186294 -1.168577
v -0.227814 0.483069 0.382519
v -0.317216 0.482098 0.094578
v -0.208853 0.296711 0.145722
v -0.266279 0.419811 0.158303
v -0.181681 0.277926 0.202773
v 1.756653 0.185013 -0.618095
v -0.194276 0.376682 0.320095
v -0.320071 0.439360 0.017197
v -0.220606 0.349515 0.192379
v -0.184813 0.321849 0.262867
v -0.298133 0.197034 -0.270993
v -0.343636 0.260083 -0.320623
v -0.303812 0.186525 -1.268052
v -0.218430 0.242293 0.036905
v -0.375245 0.206280 -0.493615
v -0.350148 0.393522 -0.151155
v -0.349119 0.304067 -0.274964
v -0.345443 0.191949 -0.422846
v 0.170146 0.480098 1.099029
v 0.099025 0.394620 0.868105
v 0.242645 0.388061 1.088634
v 0.173267 0.433513 1.040110
v -0.014687 0.498432 0.828790
v 0.329268 0.285765 1.086739
v -0.030073 0.541302 -3.477651
v 0.223100 0.364579 1.025184
v 0.619485 0.191845 -2.309259
v 0.124062 0.452558 0.987599
v 0.291898 0.512558 1.338137
v -0.085442 0.401895 0.592557
v 0.000784 0.395635 0.716435
v -0.112383 0.285406 0.409323
v -0.056159 0.341521 0.563552
v 2.015219 0.189658 -1.927165
v 0.053336 0.336089 0.723933
v -0.076097 0.257618 0.430761
v 0.896375 0.192616 -2.443964
v -0.058302 0.404554 0.637198
v 0.164991 0.191943 -2.326342
v 0.780740 0.435717 1.666638
v 0.710075 0.517140 1.719043
v 1.061753 0.532222 -3.269050
v 0.672889 0.605476 1.810248
v 0.734025 0.476829 1.683496
v 0.811027 0.513050 1.801157
v 0.589833 0.588244 1.713880
v 0.483286 0.580048 1.609712
v 0.408459 0.556687 1.511931
v 0.835709 0.559520 1.887632
v 0.519924 0.355220 1.341668
v 0.457999 0.409830 1.360615
v 0.613289 0.425534 1.508629
v 0.373329 0.411929 1.293570
v 0.578328 0.191449 -2.240067
v 0.804715 0.357645 1.579332
v 0.333162 0.483418 1.352056
v 0.502720 0.426809 1.419196
v 0.027432 0.728969 -4.756201
v 0.554264 0.905254 -4.765274
v 0.632653 0.898822 -4.764943
v 1.817162 0.192526 -2.428301
v -0.015888 0.866021 -4.763255
v 0.459695 0.893534 -4.764670
v 1.517855 0.190627 -2.096346
v 0.093185 0.796353 -4.759669
v 0.273791 0.777514 -4.758699
v 0.840905 0.921525 -4.766111
v 0.180691 0.669008 -4.753115
v 0.422743 0.736477 -4.756588
v 0.818916 0.865810 -4.763244
v 0.475335 0.717261 -4.755599
v 0.793193 0.766776 -4.758147
v 0.602701 0.760551 -4.757826
v 0.948689 0.191235 -2.202692
v -0.354313 0.616327 -3.925177
v -0.146986 0.876513 -4.441566
v -0.276774 0.823745 -3.902344
v -0.222772 0.777990 -4.259501
v -0.106552 0.925291 -4.546128
v -0.201703 0.816451 -4.288404
v -0.253245 0.724248 -4.214006
v 1.705344 0.190807 -2.127873
v 0.760601 0.191116 -2.181934
v -0.298194 0.697288 -4.044291
v -0.162943 0.743655 -4.555145
v -0.283361 0.666743 -4.161721
v -0.115052 0.831887 -4.645668
v 0.663701 0.190904 -2.144888
v -0.193258 0.698523 -4.485578
v -0.223396 0.683867 -4.381863
v -0.209678 0.192354 -2.398229
v -0.113419 0.873202 -4.604932
v 2.099681 0.189368 -1.876333
v -0.381522 0.751417 -2.993857
v -0.393289 0.749264 -2.826380
v -0.416525 0.668958 -3.005622
v -0.375126 0.721126 -3.295835
v -0.331403 0.816532 -3.332063
v -0.349298 0.815820 -3.060193
v 1.495087 0.192377 -2.402178
v 1.814740 0.189477 -1.895520
v -0.394774 0.790751 -2.525244
v -0.436706 0.694073 -2.525237
v -0.384469 0.806460 -2.579219
v -0.466022 0.623960 -2.542140
v -0.369994 0.795446 -2.876844
v -0.386319 0.663239 -3.442289
v -0.471828 0.528960 -3.011460
v -0.323334 0.773725 -3.702822
v -0.456957 0.528297 -3.204249
v -0.430337 0.601789 -3.182850
v -0.400386 0.598289 -3.581765
v -0.401662 0.677981 -3.174404
v -0.437072 0.558668 -3.308644
v -0.358678 0.728498 -3.474315
v -0.307405 0.793648 -3.808070
v -0.394384 0.590349 -3.697234
v -0.437486 0.594448 -3.127762
v -0.405863 0.573897 -3.631668
v -0.443545 0.730772 -1.521068
v -0.458857 0.688067 -1.684559
v -0.495730 0.609380 -1.537943
v 1.565173 0.189191 -1.845482
v -0.520809 0.549580 -1.578740
v -0.425454 0.765471 -1.680423
v -0.447453 0.704637 -1.903619
v 1.952928 0.190336 -2.045656
v 1.748775 0.188689 -1.757827
v -0.421689 0.764652 -1.893395
v 1.628314 0.188753 -1.768931
v 1.455827 0.190561 -2.084973
v 1.680037 0.189378 -1.878068
v -0.469535 0.629044 -2.367651
v -0.489027 0.576993 -2.476309
v -0.426956 0.724572 -2.469392
v -0.499920 0.574656 -2.037838
v 1.110089 0.192721 -2.462450
v -0.449657 0.676224 -2.366960
v -0.516207 0.528534 -2.177716
v 1.959707 0.190721 -2.112795
v -0.437384 0.711640 -2.249198
v 0.423025 0.190874 -2.139663
v -0.416863 0.777113 -1.131371
v -0.383150 0.795750 -0.763275
v -0.406479 0.778289 -0.996317
v -0.419785 0.788936 -1.227110
v -0.434953 0.556637 -0.329138
v -0.423260 0.604333 -0.397324
v -0.420236 0.757176 -1.082360
v -0.410396 0.717541 -0.760819
v -0.403521 0.632370 -0.263144
v 0.390382 0.192565 -2.435042
v 0.505329 0.192166 -2.365367
v -0.495871 0.569192 -1.129741
v -0.483890 0.553476 -0.918169
v -0.453376 0.605664 -0.795543
v -0.497552 0.594061 -1.261727
v -0.496579 0.505650 -0.851246
v -0.454748 0.653086 -1.025693
v 1.867407 0.189644 -1.924617
v 1.039279 0.190173 -2.017150
v -0.440525 0.706069 -1.097888
v -0.479828 0.540265 -0.810859
v -0.262016 0.706938 0.173406
v -0.286488 0.767812 0.053126
v -0.223781 0.777965 0.289553
v -0.039601 0.538908 -3.422657
v -0.262265 0.795341 0.134256
v -0.208746 0.621124 0.415058
v -0.124712 0.753236 0.680694
v -0.325287 0.781411 -0.101753
v -0.206931 0.780971 0.352963
v 1.646863 0.191018 -2.164814
v -0.235661 0.602560 0.321971
v -0.358911 0.734458 -0.183597
v -0.186736 0.516809 0.546230
v -0.232995 0.547079 0.370056
v 1.861534 0.188077 -1.650777
v 1.741179 0.189641 -1.924099
v -0.350948 0.646798 -0.095067
v -0.361276 0.516188 -0.037432
v -0.328126 0.627525 -0.005089
v 0.204688 0.722868 1.322729
v 0.214271 0.766275 1.366371
v 0.255832 0.745431 1.435419
v 0.281417 0.643175 1.426511
v 2.086959 0.190677 -2.105149
v 0.127104 0.783593 1.206375
v 0.152464 0.803642 1.267347
v 0.071907 0.748584 1.078627
v -0.000494 0.820750 0.978956
v -0.111142 0.572404 0.710780
v 0.017814 0.689781 0.959853
v 0.152005 0.545978 1.158956
v 0.075383 0.631334 1.046003
v -0.070083 0.600177 0.787914
v 0.101788 0.613045 1.087441
v -0.016280 0.543093 0.867874
v -0.020911 0.721463 0.900178
v -0.124509 0.650153 0.705276
v 0.722107 0.806665 2.044388
v 0.605134 0.913557 2.021303
v 0.695303 0.930485 2.136864
v 0.810999 0.950177 2.283143
v 0.745097 0.864314 2.126348
v 0.756299 0.921955 2.195369
v 0.743137 0.721637 1.983762
v 0.619448 0.530323 -3.225434
v 0.614740 0.740612 1.865565
v 1.004399 0.192659 -2.451619
v 1.871307 0.188413 -1.709489
v 0.433427 0.741650 1.687334
v 0.701879 0.659395 1.892132
v 0.579015 0.667756 1.776963
v 1.491733 0.191126 -2.183664
v 1.417871 0.191637 -2.273012
v 0.422672 0.192109 -2.355371
v 1.702621 0.191936 -2.325173
v 0.872043 0.874240 -4.727763
v 1.747665 0.192234 -2.377237
v 0.578063 0.192551 -2.432601
v 1.307655 0.009763 -4.448170
v 0.976459 -0.016002 -4.413921
v 0.878776 -0.040811 -4.380944
v 1.164009 -0.053046 -4.364680
v 1.187956 0.005365 -4.442324
v 0.002494 0.535606 -3.346787
v 1.020230 -0.095419 -4.308354
v 0.920822 -0.068454 -4.344198
v 0.868156 -0.260056 -3.654157
v 0.964478 -0.243494 -3.584079
v 1.062386 -0.219415 -3.600437
v 1.348542 -0.136606 -3.798573
v 0.906398 -0.237148 -3.823796
v 1.086604 -0.209603 -3.651109
v 0.961136 -0.232257 -3.729323
v 1.229525 -0.158545 -3.867336
v 0.756184 0.192312 -2.390896
v 1.020907 -0.201864 -3.929045
v 0.965739 -0.226659 -3.784090
v 0.700567 0.529391 -3.204015
v 1.557544 -0.093826 -3.729272
v 0.876803 -0.239393 -3.879715
v 0.949196 -0.209009 -4.043904
v 1.191553 -0.097501 -4.261508
v 1.588087 -0.077464 -3.807379
v 1.453625 -0.082525 -3.969568
v 1.214190 -0.133074 -4.061973
v 1.991462 0.188847 -1.785343
v 1.083796 -0.179439 -4.023229
v 1.297691 -0.109560 -4.057575
v 1.582759 -0.027592 -4.050572
v 1.362769 -0.060341 -4.200225
v 0.933682 -0.191737 -4.172863
v 1.304347 -0.121972 -3.989672
v 1.026780 -0.179522 -4.101754
v 1.461252 -0.053492 -4.096292
v 1.776927 0.190023 -1.990828
v 1.195136 -0.127458 -4.114899
v 0.696892 0.191541 -2.256140
v 1.301379 -0.097286 -4.110506
v 1.558907 -0.153900 -2.840213
v 1.201517 -0.225212 -2.834330
v 1.392068 -0.183952 -2.946054
v 1.621363 -0.144809 -2.728208
v 1.233441 -0.216308 -2.919843
v 1.496485 -0.169529 -2.732797
v 0.959050 -0.270554 -2.932228
v 1.432251 -0.181956 -2.744816
v 1.118664 -0.232664 -3.137389
v 1.190353 -0.216086 -3.214800
v 1.150981 -0.224817 -3.184815
v 1.510229 -0.162500 -2.876747
v 1.624889 0.191362 -2.224901
v 1.094232 -0.246979 -2.820529
v 0.963811 -0.267461 -3.004170
v 1.261809 -0.213275 -2.832190
v 0.914079 -0.281586 -2.862465
v -0.010957 0.529217 -3.200011
v 1.002021 -0.267013 -2.764179
v 1.361914 -0.194917 -2.779665
v 0.989297 -0.266476 -2.867108
v 0.507739 0.191154 -2.188488
v 1.379944 -0.187847 -2.896371
v 1.663985 -0.087863 -3.456933
v 1.678412 -0.121297 -2.930559
v 1.562579 -0.130121 -3.194330
v 1.452966 -0.157748 -3.168443
v 1.558673 -0.146519 -2.973117
v 1.637402 -0.111748 -3.205056
v 1.369040 -0.176646 -3.180847
v 1.427907 -0.131544 -3.627285
v 1.538722 -0.127795 -3.307870
v 0.935601 0.190447 -2.065041
v 1.230677 -0.194746 -3.387884
v 1.421779 -0.143265 -3.480402
v 1.489908 -0.112604 -3.689280
v 1.055628 -0.230556 -3.465304
v 1.213770 -0.190380 -3.507186
v 1.333174 -0.161934 -3.511832
v -0.125638 0.541551 -3.483366
v 1.446926 -0.148351 -3.323074
v 1.925925 0.192520 -2.427262
v 1.496456 -0.152826 -3.092404
v -0.245452 0.535846 -3.352314
v 1.422841 -0.136626 -3.571701
v 1.297468 -0.192382 -3.196855
v 1.266849 -0.178727 -3.495064
v 1.270064 0.192429 -2.411320
v 1.198074 -0.190058 -3.564622
v 1.173727 -0.238078 -2.376856
v 1.135396 -0.246708 -2.048058
v 1.043973 -0.264252 -2.082982
v 1.525643 -0.171666 -1.940207
v 0.905296 -0.290187 -2.318334
v 1.201473 -0.234461 -1.906089
v 1.186310 -0.236677 -2.098681
v 0.913360 -0.287905 -2.513228
v 0.901141 -0.291542 -2.169727
v 1.577202 0.192375 -2.401979
v 0.210545 0.530795 -3.236274
v 0.897450 -0.292451 -2.117005
v 0.861128 -0.300039 -1.964335
v 1.024988 -0.266807 -2.383361
v 1.081875 -0.257178 -2.014669
v 0.990569 -0.274277 -2.163506
v 1.589337 -0.159408 -1.925384
v 1.476052 -0.181255 -1.939627
v 1.062483 -0.260155 -2.222647
v 1.972346 0.191111 -2.180928
v 1.125327 -0.247968 -2.233097
v 1.714982 -0.130285 -2.346570
v 1.661105 -0.138831 -2.558000
v 1.615212 -0.149036 -2.459033
v 1.115547 -0.247403 -2.596770
v 1.434810 -0.188239 -2.157056
v 1.492848 -0.176452 -2.175443
v 1.232544 -0.225542 -2.452753
v 1.218538 -0.226880 -2.591972
v 1.315175 -0.206621 -2.683075
v 1.246783 -0.223532 -2.373167
v 1.063218 -0.258572 -2.528496
v 1.626172 -0.147790 -2.369033
v 1.724868 -0.126094 -2.557981
v 0.795938 0.188566 -1.736264
v 1.330383 0.191956 -2.328750
v 1.671786 -0.142640 -1.991171
v 1.417912 -0.188222 -2.480539
v 1.391830 -0.191083 -2.704595
v 1.721184 -0.131619 -2.101245
v 1.397535 -0.191692 -2.537804
v 1.645330 -0.145882 -2.186073
v 1.903656 0.191936 -2.325112
v 1.309698 -0.210523 -2.415283
v 1.454693 -0.181511 -2.419906
v 1.231408 -0.224740 -1.420333
v 0.832568 0.188261 -1.682985
v 1.027966 -0.266304 -1.530952
v 0.872681 -0.298418 -1.354446
v 0.913941 -0.289760 -1.485484
v 1.101959 -0.251163 -1.506812
v 1.094821 -0.252496 -1.594282
v 1.494434 -0.171118 -1.201125
v 1.769290 0.191111 -2.181031
v 1.402313 -0.190092 -1.148376
v 0.848015 -0.302801 -1.807108
v 1.574046 -0.155048 -1.027084
v 1.442774 0.188744 -1.767343
v 1.284780 -0.213774 -1.433198
v 1.690473 0.189766 -1.945895
v 1.333423 0.190263 -2.032863
v 1.300852 -0.210646 -1.320368
v 0.943594 0.192425 -2.410649
v 1.375689 -0.196438 -1.461257
v 1.610552 -0.149064 -1.232260
v 1.017420 -0.269360 -1.871895
v 1.816938 0.187796 -1.601722
v 1.462451 -0.183554 -1.808686
v 1.096824 -0.254634 -1.915178
v 1.367631 -0.198627 -1.521829
v 1.223047 -0.228771 -1.754527
v 1.580975 -0.153575 -1.125023
v 1.299142 -0.211528 -1.503095
v 1.694280 -0.134934 -1.408796
v 1.474184 -0.177180 -1.422270
v 1.177324 -0.237092 -1.714720
v 1.242811 -0.223777 -1.640957
v 1.650853 -0.142521 -1.341423
v 1.333967 -0.206789 -1.683035
v 1.501011 -0.171243 -1.346918
v 0.696864 0.538520 -3.413732
v 1.564611 -0.160425 -1.473005
v 1.255918 -0.223191 -1.820752
v 1.673866 -0.137287 -1.263535
v 1.650505 -0.140909 -1.184325
v 0.804631 0.192086 -2.351353
v 1.152515 -0.212428 -0.533864
v 1.104098 -0.229056 -0.807653
v 0.913683 -0.280217 -0.842570
v 0.986865 -0.263139 -1.018316
v 1.197880 -0.202578 -0.696773
v 0.983299 -0.259738 -0.699906
v 1.067200 -0.236738 -0.651071
v -0.254275 0.190889 -2.142150
v 1.116745 -0.224883 -0.748618
v 0.737152 0.537006 -3.378948
v 1.956499 0.189624 -1.921169
v 1.019755 -0.253027 -0.918985
v 0.979470 -0.264310 -0.959925
v 1.413281 -0.174224 -0.878405
v 1.455303 -0.164234 -0.844545
v 0.968283 -0.275843 -1.176691
v 1.461810 -0.131780 -0.391895
v 1.457904 -0.171793 -0.960814
v 1.388303 -0.150253 -0.465586
v 1.506487 -0.138456 -0.606279
v 1.582497 -0.136498 -0.778245
v 1.052331 -0.261167 -1.185734
v 1.566693 -0.118197 -0.471680
v 1.216335 -0.202403 -0.767302
v 1.085260 0.190930 -2.149349
v 1.316000 0.189348 -1.872914
v 1.329847 -0.191511 -0.908768
v 1.885192 0.187189 -1.495682
v 1.366083 -0.194236 -1.043713
v 1.270788 -0.195215 -0.806756
v 1.330119 -0.196532 -0.982173
v 1.432821 -0.153445 -0.629125
v 0.114833 0.190055 -1.996387
v 1.214094 -0.207654 -0.837412
v 0.860515 -0.279321 -0.476219
v 0.858819 -0.266281 -0.174405
v 0.999340 -0.185009 -0.043052
v 1.088678 -0.129761 0.117891
v 0.953825 -0.215926 -0.184975
v 0.900654 -0.252606 -0.362958
v 0.905870 -0.246961 -0.301202
v 1.242483 -0.111321 0.051688
v 1.141749 -0.192401 -0.339237
v 1.328161 -0.159132 -0.335153
v 1.300930 -0.126155 -0.102671
v 1.265087 -0.099224 0.101849
v 1.338601 -0.083821 0.117521
v 1.041626 -0.181822 -0.166186
v 1.191848 -0.181824 -0.328059
v 0.904671 -0.264881 -0.530271
v 1.216739 -0.065626 0.360916
v 1.161323 -0.097973 0.221360
v 0.986700 -0.224846 -0.372038
v 1.255054 -0.174396 -0.350411
v 1.153629 -0.113854 0.131824
v 0.872368 0.189556 -1.909338
v 0.923949 -0.252397 -0.474138
v 1.126714 -0.166298 -0.162240
v 1.019993 -0.202084 -0.267693
v 0.845072 -0.121185 0.511093
v 0.845102 -0.232788 0.152077
v 1.133031 -0.073791 0.408465
v 1.004351 -0.121422 0.312682
v -0.087318 0.187722 -1.588782
v 0.928628 -0.138242 0.293163
v 0.856078 -0.050280 0.616585
v 0.936532 0.188032 -1.643008
v 0.905751 -0.074870 0.512287
v 1.028327 -0.093521 0.393070
v 0.947781 -0.151263 0.241312
v 0.241998 0.188812 -1.779294
v 1.019702 -0.055013 0.523732
v 1.581213 0.179216 -4.461882
v 1.355355 0.177764 -4.462101
v 1.195330 0.087593 -4.475755
v 0.313559 0.543472 -3.527491
v -0.006495 0.187059 -1.472855
v 1.310403 0.122668 -4.470444
v 0.879529 0.273913 -4.447543
v -0.166156 0.190727 -2.113868
v 1.150214 0.209146 -4.457350
v 1.112167 0.331813 -4.438776
v 0.902421 0.109423 -4.472449
v 0.957788 0.207541 -4.457592
v 0.969389 0.110920 -4.472222
v 1.225565 0.287015 -4.445559
v 1.861422 0.129985 -3.709737
v 1.692558 -0.019535 -3.785515
v 1.864736 0.168203 -3.798662
v 1.740439 0.111503 -3.991166
v 1.582812 0.027758 -4.204948
v 1.797302 0.106466 -3.823725
v -0.262258 0.187324 -1.519222
v 1.614325 0.016602 -4.090721
v 1.786953 0.060305 -3.733565
v 1.678041 0.048469 -3.999221
v 1.855147 0.289071 -4.078738
v 1.783787 0.181600 -4.039357
v 1.542431 0.081797 -4.440553
v 1.805331 0.174523 -3.971151
v 1.815419 0.284637 -4.169081
v -0.062636 0.191871 -2.313859
v 1.665000 0.220112 -4.414403
v 1.893721 0.206514 -3.814983
v 1.854510 0.244822 -3.990657
v 1.631373 0.190864 -4.439206
v 1.668172 0.168925 -4.302739
v 1.760934 -0.038898 -3.233018
v 1.721417 -0.097665 -3.046610
v 1.748866 -0.032253 -3.377098
v -0.040561 0.189707 -1.935655
v 0.141463 0.191363 -2.225078
v 1.708109 -0.064726 -3.414850
v 1.786818 -0.051361 -2.938590
v 1.772578 -0.015726 -3.335807
v 1.835011 -0.028537 -2.766661
v 1.966170 0.102756 -2.864188
v 1.827321 -0.014302 -2.940219
v 1.769729 -0.060759 -2.988896
v 1.912981 0.075436 -3.036541
v 1.961993 0.080700 -2.714980
v 2.059031 0.151918 -2.575264
v 2.035314 0.158547 -2.791394
v 2.006224 0.145677 -2.898605
v 2.043631 0.218503 -3.159105
v 1.883115 0.089941 -3.343316
v 2.008072 0.191413 -3.209755
v 1.930977 0.159767 -3.511312
v -0.198225 0.188462 -1.718017
v 1.863299 0.091707 -3.490902
v 0.034318 0.188320 -1.693266
v -0.239277 0.191565 -2.260279
v 1.938762 0.154480 -3.420812
v 1.811316 0.053059 -3.571706
v 2.055273 0.163638 -2.691365
v 1.841540 0.091080 -3.634801
v 1.915966 0.126449 -3.377797
v 2.015377 0.174524 -3.040406
v 1.925191 0.019629 -2.121708
v 1.792825 -0.096781 -1.853403
v 2.057735 0.117263 -1.580265
v -0.362779 0.188558 -1.734791
v 1.792979 -0.085037 -2.350449
v -0.226149 0.188851 -1.786069
v 1.799053 -0.083314 -2.207892
v 1.767162 -0.115758 -1.955056
v 1.925821 0.018279 -2.041503
v 1.808780 -0.073201 -2.294311
v 1.877556 -0.019679 -2.135759
v 2.048636 0.113732 -1.753162
v 1.755500 -0.119965 -2.190258
v 1.880264 -0.012343 -2.342144
v 2.071338 0.136922 -1.898211
v 2.133728 0.183048 -1.658787
v 2.027759 0.103886 -2.035916
v 1.988129 0.072715 -2.120299
v 0.351434 0.189524 -1.903625
v 0.233706 0.191130 -2.184328
v 2.119981 0.186611 -2.207981
v 2.077952 0.140038 -1.808695
v 2.120908 0.191901 -2.370984
v 2.072708 0.142479 -2.057302
v 1.815288 -0.061195 -2.562046
v 1.977919 0.065544 -2.173125
v 2.016538 0.104501 -2.401263
v -0.108663 0.189371 -1.876957
v 1.861144 0.004402 -0.902190
v 1.933003 0.064934 -0.840694
v 1.899652 0.024760 -1.098073
v 1.958549 0.088247 -0.784859
v 1.832059 -0.027786 -1.072714
v 1.862368 -0.005764 -1.113238
v 1.999716 0.127192 -0.668810
v 1.852253 -0.027438 -1.371058
v 1.788483 -0.063454 -1.090313
v 1.750646 -0.123090 -1.648569
v 1.726826 -0.108081 -1.004613
v 1.874785 0.020951 -0.794712
v 1.864553 0.009774 -0.851918
v 2.022934 0.094938 -1.464926
v 1.964108 0.055394 -1.393978
v 2.082607 0.143694 -1.401708
v 2.112163 0.161547 -1.468857
v 1.812764 -0.076231 -1.678922
v 2.116828 0.171389 -1.369608
v 1.853608 -0.040366 -1.596656
v 2.026793 0.119683 -1.123145
v 2.038067 0.133820 -1.034183
v 1.945261 0.046173 -1.317327
v -0.391314 0.188879 -1.790891
v 1.939318 0.045580 -1.256946
v 1.956242 0.074102 -1.009218
v 0.075151 0.189495 -1.898682
v 1.877347 -0.027846 -1.679041
v 1.760172 0.116722 0.024861
v 1.768468 0.107795 -0.048955
v 1.518856 -0.111432 -0.258063
v 1.790666 0.179056 0.227507
v 1.651655 -0.111300 -0.727167
v 1.711867 -0.063581 -0.702445
v 0.101195 0.189153 -1.838851
v 1.684042 -0.103436 -0.802557
v 1.654654 -0.052804 -0.446376
v 1.745522 0.051869 -0.246379
v 1.678514 -0.077800 -0.655298
v 1.711613 0.092897 0.077947
v 1.976902 0.131255 -0.529497
v 1.959037 0.139325 -0.440394
v 1.899763 0.110077 -0.411834
v 1.326922 0.188728 -1.764642
v 1.717404 -0.090021 -0.848906
v 1.785516 0.080516 -0.228964
v 0.305001 0.188850 -1.785944
v 1.867990 0.192181 0.069620
v -0.142584 0.189763 -1.945428
v 1.958083 0.104435 -0.604019
v 1.762677 0.047565 -0.321318
v 2.034091 0.163312 -0.538755
v 1.795335 0.023718 -0.527557
v -0.124863 0.188653 -1.751389
v 1.880577 0.162257 -0.108707
v 1.392375 0.188476 -1.720515
v 1.381346 0.055635 0.445465
v 1.342701 0.101218 0.637486
v 1.272028 0.063684 0.648161
v 1.261012 -0.030638 0.400651
v 1.419668 -0.006322 0.207860
v 0.171882 0.190384 -2.054018
v 1.394090 0.017042 0.315784
v 1.445961 -0.098311 -0.094519
v 1.452705 -0.012151 0.137037
v 1.341659 -0.006144 0.336827
v 1.571103 0.197011 0.596701
v 1.413042 0.113219 0.556088
v 1.383988 0.217688 0.904411
v 1.520483 0.017987 0.131981
v 1.612505 0.153885 0.414192
v 1.248863 0.187300 -1.514988
v 1.454230 0.230995 0.851435
v 0.999059 0.188116 -1.657520
v 1.470149 0.030724 0.236050
v 1.493364 -0.006800 0.094111
v -0.331874 0.192153 -2.363137
v 1.565375 0.106677 0.336122
v 1.518426 0.187273 -1.510206
v 1.463837 0.150532 0.599965
v 0.247772 0.189239 -1.853887
v 1.520882 0.126676 0.454055
v 0.970416 0.138767 1.038253
v 0.858514 0.232456 1.330922
v 0.851624 0.296680 1.478487
v 0.900828 0.143587 1.101821
v 0.928573 0.056133 0.886928
v 0.889513 0.204550 1.245521
v 0.969620 0.168737 1.105275
v 1.052461 0.188078 -1.650880
v 1.203857 -0.004932 0.549552
v 1.114625 0.187043 1.052963
v 1.306696 0.245508 1.069070
v 0.892939 0.319247 1.499910
v 1.116247 0.292584 1.298004
v 0.962760 0.261079 1.320604
v 1.223200 0.146074 0.889502
v -0.207960 0.190012 -1.989005
v 1.032850 0.159863 1.040768
v -0.328692 0.188942 -1.801982
v 0.416650 0.188276 -1.685647
v -0.057225 0.187453 -1.541784
v 1.010454 0.284354 1.345022
v 0.782509 -0.073044 -4.338097
v 0.511110 -0.041441 -4.380105
v 0.763936 -0.178859 -4.197440
v 0.628382 -0.004252 -4.429541
v 0.610661 -0.088248 -4.317887
v 0.834502 -0.183489 -4.191286
v 0.258972 0.189788 -1.949874
v 0.792245 -0.010933 -4.420659
v 0.251546 -0.032829 -4.174418
v 0.076522 -0.075239 -3.765366
v 0.288755 -0.113987 -3.788428
v 0.436402 -0.135565 -3.832685
v 0.185430 -0.011834 -4.214041
v 0.306168 -0.083125 -3.968862
v 0.262874 -0.010304 -4.304637
v 0.451360 -0.119554 -3.932608
v 0.660389 -0.186757 -3.803014
v -0.174188 0.189505 -1.900342
v 0.221286 -0.111736 -3.728299
v 1.664617 0.187400 -1.532488
v 0.608902 -0.166922 -3.852145
v 1.571366 0.530036 -3.218835
v 0.599721 0.532711 -3.280293
v 0.006536 0.188971 -1.806985
v 0.331127 0.189884 -1.966518
v 0.194990 -0.074556 -3.895263
v 0.835027 0.187477 -1.545932
v 0.744302 -0.231830 -3.656083
v 0.703997 -0.194481 -3.896213
v 0.516692 -0.114275 -4.045152
v 0.634080 -0.139989 -4.248664
v 0.676869 0.187743 -1.592347
v 0.681153 -0.170984 -4.080199
v 0.504250 -0.095236 -4.220827
v 0.842243 -0.271684 -3.568598
v 0.780880 -0.224270 -3.872959
v 0.809078 -0.224048 -3.999211
v 0.567137 -0.139979 -3.955434
v 0.071276 0.190781 -2.123333
v 0.685159 -0.166738 -4.149093
v 0.011449 -0.089380 -3.382752
v 0.541746 -0.229473 -2.856661
v 0.130247 -0.101336 -3.554714
v 0.233989 -0.145749 -3.198091
v 0.168380 -0.139677 -3.095199
v 0.105925 -0.141233 -2.887812
v 0.273615 -0.169395 -2.962201
v 0.264372 -0.160978 -3.060511
v 0.386713 -0.195574 -2.905179
v 0.188807 -0.147211 -3.043047
v 0.297532 -0.170076 -3.022568
v 0.268164 -0.183764 -2.731768
v 0.474498 0.190031 -1.992276
v 0.065514 -0.101838 -3.356333
v 0.202871 -0.157205 -2.935434
v 0.418799 -0.214805 -2.712908
v 0.506118 -0.205416 -3.110476
v 0.409047 -0.203816 -2.848099
v 0.624710 0.528055 -3.173311
v 0.161160 -0.129128 -3.231273
v 0.522308 -0.221003 -2.925692
v 0.575865 -0.229279 -2.960171
v -0.324047 0.188242 -1.679663
v 0.055161 -0.106713 -3.253077
v 0.370550 -0.182699 -3.049584
v 0.062791 -0.122623 -3.038243
v 0.321537 -0.177771 -2.978561
v 0.519848 -0.215460 -3.001129
v -0.073507 0.190462 -2.067517
v 0.763064 -0.262004 -3.307428
v 0.361084 -0.156193 -3.536424
v 0.706754 -0.242535 -3.495294
v 0.717187 -0.257572 -3.077286
v 0.748610 -0.272664 -2.830726
v 0.656409 -0.230994 -3.466608
v 0.646321 -0.241811 -3.020686
v 1.353039 0.187462 -1.543286
v 0.819481 -0.278615 -3.216263
v 0.394672 -0.166617 -3.464214
v 0.580401 -0.223804 -3.080197
v 0.777321 -0.275475 -2.973476
v 0.983653 0.189213 -1.849255
v 0.295610 0.533186 -3.291202
v 0.929790 0.187613 -1.569676
v 0.101865 -0.088420 -3.668680
v 1.011143 0.188650 -1.750910
v 0.277175 -0.133967 -3.588886
v 0.616527 -0.227302 -3.261159
v 0.768593 -0.265439 -3.237903
v 0.642586 -0.229121 -3.415277
v 0.508676 -0.237873 -1.960292
v 0.121006 -0.158713 -2.331802
v 0.755738 -0.286019 -1.945558
v 0.517751 -0.237766 -2.140561
v 0.223595 0.539140 -3.427974
v 0.062279 -0.146856 -2.375062
v 0.055607 -0.149169 -2.027112
v 0.571045 -0.248987 -2.056816
v 0.649873 -0.264630 -2.024975
v 0.010049 -0.134540 -2.584250
v 0.135737 -0.165406 -1.962441
v 0.118989 -0.161647 -2.011140
v 0.087876 0.187581 -1.564183
v 0.698801 -0.274203 -2.018423
v 0.100367 -0.153404 -2.457058
v 0.348812 -0.203025 -2.326085
v 0.018045 -0.140804 -2.130127
v 0.123702 0.188315 -1.692443
v 0.283697 0.187155 -1.489632
v 0.369844 -0.211271 -1.924997
v -0.044371 -0.131526 -1.855742
v 0.572886 -0.248069 -2.179860
v 0.178316 0.191002 -2.161942
v 0.162996 -0.168138 -2.209558
v 0.230684 -0.180660 -2.269920
v 0.338990 -0.199484 -2.653958
v 0.760549 -0.284400 -2.491590
v 0.336533 0.538805 -3.420277
v 0.562110 -0.245616 -2.247767
v 0.475706 -0.226712 -2.685119
v 0.795619 -0.291894 -2.362378
v 0.273695 -0.187059 -2.483033
v 0.483335 -0.228494 -2.616090
v 0.039199 -0.139349 -2.701213
v 0.699370 -0.273002 -2.265673
v 0.392564 -0.210954 -2.450505
v 0.689207 -0.271361 -2.160279
v 0.616005 -0.255167 -2.578677
v 1.792962 0.187516 -1.552697
v 0.220157 -0.175905 -2.603082
v 0.716910 -0.275259 -2.602883
v 0.696237 -0.271853 -2.406632
v 0.363164 -0.204830 -2.516173
v 1.116590 0.187008 -1.463907
v 1.596311 0.187833 -1.608136
v 0.286666 -0.192829 -1.322934
v 0.133650 -0.162676 -1.374880
v -0.023769 -0.129917 -1.275332
v -0.012555 -0.137291 -1.726253
v 0.156066 -0.170575 -1.673878
v 0.158463 -0.164932 -1.134547
v -0.028199 -0.131438 -1.487615
v 0.102892 -0.158264 -1.530541
v 0.794016 0.189639 -1.923770
v 0.058208 -0.146526 -1.287518
v 0.210232 -0.180221 -1.564959
v 0.243534 -0.186180 -1.500570
v 0.425868 -0.219631 -1.220269
v 0.295393 -0.196881 -1.525331
v 0.049880 -0.142848 -1.110960
v 1.388176 0.187740 -1.591971
v 0.431865 -0.219828 -1.131543
v 0.168016 -0.171089 -1.507778
v 1.183071 0.188274 -1.685193
v 1.370483 0.527930 -3.170460
v 0.400982 -0.216743 -1.406255
v 0.005685 -0.135041 -1.205409
v 0.019782 -0.144259 -1.790699
v 0.604910 -0.257010 -1.911862
v 0.511660 -0.239329 -1.700023
v 0.771149 -0.289990 -1.312405
v 0.768870 -0.289090 -1.620416
v 0.740902 -0.284032 -1.392991
v 0.588338 -0.254465 -1.474497
v 0.501114 -0.237566 -1.517616
v 0.702523 -0.276238 -1.651913
v 0.556536 0.188147 -1.663018
v 1.014287 0.530443 -3.228187
v 0.418907 -0.221649 -1.551538
v 0.795024 -0.294445 -1.415143
v 0.652142 -0.266799 -1.461306
v 0.239676 -0.186811 -1.715966
v -0.298150 0.189574 -1.912323
v 0.262828 -0.191060 -1.862532
v 1.308624 0.187836 -1.608711
v 0.167821 0.188638 -1.748755
v 0.328599 -0.185284 -0.728370
v 0.420429 -0.203441 -0.696448
v 0.580880 -0.234992 -0.638486
v 0.717630 -0.267759 -0.662624
v 0.054162 -0.127751 -0.782864
v 0.136747 -0.116560 -0.409793
v 0.111127 -0.127092 -0.613876
v 0.563533 -0.221849 -0.522986
v 0.406334 -0.208289 -0.796877
v 1.284056 0.526178 -3.130205
v 0.335306 -0.191338 -0.785195
v 0.273560 -0.175828 -0.765362
v 0.642000 -0.256460 -0.734656
v 0.151578 -0.144687 -0.719889
v 0.230207 -0.127791 -0.286602
v 0.820592 -0.289518 -0.644356
v 0.439805 -0.197182 -0.563453
v 0.585877 0.190146 -2.012423
v 0.711879 -0.270734 -0.754554
v 0.586179 -0.246100 -0.793114
v 0.449261 -0.219331 -0.839693
v 1.682104 0.215184 -2.950643
v 0.694334 -0.272314 -1.127292
v 0.774956 -0.288115 -1.102639
v 0.717857 -0.276342 -1.077489
v 0.367657 -0.206001 -1.059529
v 0.653850 -0.261116 -0.900740
v 0.823731 -0.295253 -0.910557
v 0.553192 -0.243411 -1.079590
v 0.771705 0.222483 -3.108847
v 0.723461 -0.274803 -0.882695
v 0.480242 -0.227568 -0.988711
v 0.792815 -0.286171 -0.698735
v 0.819491 -0.295588 -0.997200
v 0.353652 -0.144394 -0.161041
v 0.575777 -0.182803 -0.046861
v 0.562178 -0.146327 0.106473
v 0.573852 -0.108583 0.299282
v 0.436476 -0.127555 0.027929
v 0.364048 -0.108239 0.022610
v 0.800012 -0.257646 -0.101059
v 0.513352 -0.131781 0.110046
v 0.426843 -0.108277 0.105724
v 0.685354 -0.189527 0.066892
v 0.502428 -0.114315 0.177616
v 1.860265 0.215704 -2.961908
v 1.752361 0.233737 -3.352804
v 0.527918 -0.207416 -0.428118
v 0.581020 -0.208071 -0.159385
v 0.812886 -0.273315 -0.335940
v 0.375951 -0.161401 -0.241992
v 0.703050 -0.257117 -0.570575
v 1.844967 0.201738 -2.659173
v 0.404473 -0.166377 -0.197715
v 0.773869 -0.267345 -0.414615
v 0.744033 -0.263879 -0.498583
v 0.518922 -0.201540 -0.348885
v 0.621020 -0.220240 -0.209617
v 0.663139 -0.107401 0.436749
v 0.736233 -0.065381 0.588581
v 0.812851 -0.144898 0.456468
v 0.792599 -0.197508 0.317834
v 0.783880 -0.113128 0.510438
v 0.736926 -0.155009 0.377811
v 0.676034 0.231601 -3.306504
v 0.660880 -0.070856 0.521264
v 0.740699 -0.180761 0.289492
v 0.517978 -0.070725 0.410779
v 0.734373 -0.190301 0.182166
v 0.645564 -0.135275 0.328043
v 0.294751 0.090865 -4.475259
v 0.316300 0.304717 -4.442879
v 0.284448 0.229280 -4.454301
v 0.519576 0.253870 -4.450577
v 0.173736 0.128093 -4.469623
v 0.078943 0.325857 -4.439678
v 0.156739 0.183595 -4.461218
v 0.450950 0.186849 -4.460726
v 0.341905 0.213508 -4.456689
v 0.799583 0.184742 -4.461045
v 0.767759 0.039005 -4.483111
v 1.654229 0.217554 -3.002004
v 0.546320 0.087815 -4.475721
v 0.454125 0.134797 -4.468607
v 0.630821 0.083143 -4.476429
v -0.124148 0.288354 -4.172853
v -0.060770 0.017478 -3.722469
v -0.195014 0.241993 -3.898553
v -0.017918 0.063703 -3.928856
v -0.183078 0.135732 -3.690675
v -0.082537 0.084672 -3.819602
v 0.392548 0.233043 -3.337757
v -0.268402 0.254144 -3.748497
v 0.248984 0.242497 -3.542709
v -0.150286 0.183769 -3.876817
v -0.147984 0.247838 -4.025081
v 0.132757 0.017277 -4.243608
v 0.045570 0.166361 -4.342950
v -0.051332 0.282857 -4.338390
v -0.029041 0.195864 -4.198770
v 0.029914 -0.053853 -3.783616
v 1.451730 0.232514 -3.326301
v 0.016675 0.085953 -4.072508
v 0.168558 0.064645 -4.456566
v 0.054645 0.075950 -4.157592
v -0.284887 0.114808 -2.864909
v -0.281562 0.153291 -3.168091
v -0.343025 0.213951 -3.198088
v -0.316607 0.241846 -3.579053
v -0.347828 0.158941 -2.764371
v -0.194209 0.072386 -3.164191
v -0.151773 -0.022166 -2.759087
v -0.272228 0.176167 -3.397713
v -0.355661 0.155864 -2.689313
v -0.323896 0.227591 -3.426075
v -0.300298 0.162656 -3.110624
v -0.167050 0.028464 -3.026000
v -0.217472 0.078405 -3.051905
v 1.242913 0.222452 -3.108176
v -0.358100 0.205758 -3.037062
v -0.296926 0.133906 -2.923450
v -0.153369 0.005007 -2.946675
v 0.006890 -0.056675 -3.663393
v -0.064479 -0.016320 -3.441548
v -0.121131 0.043791 -3.488317
v 0.076894 0.245110 -3.599351
v 1.413990 0.230863 -3.290512
v -0.221103 0.153058 -3.596169
v -0.150734 0.077325 -3.529607
v -0.151009 0.096095 -3.676498
v 0.382229 0.527665 -3.164364
v 0.769541 0.240251 -3.494020
v 1.149503 0.236591 -3.414666
v 1.909153 0.203942 -2.706941
v -0.165394 0.062220 -3.298339
v -0.145614 0.021527 -3.125608
v -0.035924 -0.035101 -3.509397
v 0.676773 0.234492 -3.369164
v -0.325884 0.090049 -1.871322
v -0.441620 0.182923 -1.730034
v -0.390380 0.146367 -1.959104
v -0.254530 0.034072 -2.005269
v -0.225547 0.011663 -2.071611
v -0.186255 -0.026155 -1.890099
v -0.258645 0.027845 -1.652385
v -0.153819 -0.057250 -1.744758
v -0.357833 0.122600 -2.084655
v -0.358998 0.108871 -1.547999
v 1.995527 0.197648 -2.570516
v -0.397562 0.161420 -2.289475
v 1.555026 0.241609 -3.523444
v 1.614433 0.204022 -2.708686
v -0.217338 0.015748 -2.532926
v -0.067800 -0.113836 -2.381264
v -0.065741 -0.121983 -2.109432
v -0.269253 0.059995 -2.554175
v -0.239864 0.033049 -2.461658
v -0.090273 -0.104854 -1.959215
v -0.159485 0.190224 -2.025984
v 1.695795 0.212596 -2.894528
v -0.208380 0.004701 -2.384587
v -0.346680 0.120869 -2.368912
v -0.111929 -0.085095 -2.023269
v -0.219688 0.010581 -2.229867
v -0.095947 -0.085139 -2.592369
v -0.310433 0.089249 -2.323235
v -0.391831 0.169264 -0.977486
v -0.299094 0.108902 -0.798559
v -0.300991 0.080435 -1.248251
v -0.107957 -0.055788 -1.034692
v 1.546851 0.226771 -3.201803
v -0.338653 0.140152 -0.792268
v -0.318896 0.120040 -0.863063
v 0.426152 0.187767 -1.596545
v 1.898826 0.221281 -3.082809
v 1.622875 0.220901 -3.074554
v -0.377880 0.161834 -0.925778
v -0.397323 0.149267 -1.342052
v -0.329816 0.139963 -0.691680
v -0.318120 0.104089 -1.093509
v -0.311034 0.075694 -1.480059
v -0.123207 -0.068336 -1.497274
v 1.409470 0.220130 -3.057858
v -0.073615 -0.086615 -1.109685
v -0.216286 -0.006223 -1.672626
v -0.303821 0.067339 -1.536788
v -0.144223 -0.058320 -1.616437
v 0.788696 0.226399 -3.193750
v 1.308341 0.214002 -2.925002
v -0.414134 0.157407 -1.417907
v -0.104652 -0.068518 -1.220069
v -0.064420 -0.115396 -1.541991
v -0.112710 -0.072338 -1.417848
v 0.020131 0.054529 0.038596
v -0.292856 0.176358 -0.324611
v -0.132029 0.150577 0.022852
v -0.258882 0.143684 -0.370140
v -0.046406 0.065428 -0.104137
v 0.017181 0.029876 -0.077527
v -0.037485 0.023695 -0.260908
v 1.504819 0.210822 -2.856082
v -0.101130 0.120847 -0.018612
v 1.331568 0.240250 -3.494001
v -0.129258 0.115742 -0.121378
v -0.199224 0.106632 -0.361323
v -0.178096 0.106294 -0.302356
v -0.047475 0.119709 0.129905
v -0.182006 0.075496 -0.455069
v -0.211499 0.067585 -0.601560
v -0.136349 0.037321 -0.506655
v -0.024174 -0.079033 -0.757953
v -0.230902 0.107520 -0.448730
v -0.117238 -0.003267 -0.664104
v 0.051164 -0.050835 -0.339639
v 0.010156 -0.067211 -0.573004
v 1.915764 0.235726 -3.395917
v -0.057137 -0.044939 -0.684643
v -0.076953 0.192463 -2.417355
v -0.131791 0.049868 -0.421500
v 1.526290 0.220935 -3.075294
v 0.230153 0.226790 0.836845
v 0.330984 0.248796 1.031998
v 0.227734 0.191795 -2.300488
v 1.635514 0.190644 -2.099340
v 0.234465 0.122055 0.562394
v 0.207415 0.166156 0.643855
v 0.306385 0.243702 0.985122
v 0.089872 0.132706 0.395495
v 1.570786 0.231753 -3.309804
v 0.435958 0.056405 0.659005
v 0.151047 0.091226 0.367161
v 0.214926 0.079534 0.422199
v 0.401953 -0.016335 0.418394
v 0.327564 0.203512 0.906193
v 0.315478 0.011092 0.370792
v 1.829332 0.220867 -3.073830
v -0.002575 0.127884 0.242761
v -0.034110 0.128011 0.193336
v 0.289311 -0.085376 0.020048
v 1.678158 0.244414 -3.584245
v 0.107847 0.077396 0.255332
v 0.100726 -0.000140 -0.004595
v 0.411011 -0.059353 0.295827
v 0.114264 0.049655 0.176502
v 0.124958 0.014723 0.081366
v 0.156549 0.021029 0.151512
v 1.948561 0.199994 -2.621356
v 0.638235 0.169985 1.069163
v 0.800981 0.108058 1.037301
v 1.118067 0.188379 -1.703552
v 0.739251 0.204900 1.211947
v 0.777185 0.301029 1.449543
v 1.226263 0.191152 -2.188155
v 0.566577 0.292550 1.294384
v 0.776531 0.132524 1.075689
v 0.829538 0.061553 0.952729
v 0.701327 0.283999 1.362684
v 0.748994 0.116888 1.023207
v 0.736484 0.291426 1.401908
v 0.575843 -0.029629 0.557147
v 0.484236 0.160738 0.943535
v 0.498378 0.089304 0.784031
v 0.327165 0.240386 -3.496944
v 0.241745 0.235051 -3.381284
v 0.576330 0.063179 0.777906
v 0.505010 -0.046827 0.465492
v 0.385485 0.207832 0.984539
v 1.029094 0.243732 -3.569468
v 0.464782 0.122713 0.839274
v 0.845000 0.375662 -4.347991
v 0.844964 0.394591 -4.420011
v 0.844917 0.566766 -4.599033
v 1.308648 0.350717 -4.435802
v 0.617134 0.242972 -3.552989
v 1.612873 0.350753 -4.380095
v 1.112595 0.191992 -2.335042
v 1.401603 0.350815 -4.287668
v 1.191684 0.350784 -4.334404
v 0.923658 0.350804 -4.304152
v 0.962629 0.350742 -4.397028
v 1.928280 0.253181 -3.607810
v 1.894590 0.191426 -2.236090
v 1.940585 0.266221 -3.756401
v 1.789501 0.307301 -3.986094
v 1.800750 0.300229 -3.926427
v 1.741259 0.348933 -4.373280
v 2.044712 0.215648 -2.950748
v 0.986312 0.240601 -3.501597
v 2.028535 0.210230 -2.822250
v 2.004059 0.223461 -3.107569
v 2.000884 0.203967 -2.662832
v 1.977756 0.220916 -3.020777
v 1.945907 0.244096 -3.510039
v 2.090502 0.187853 -1.611453
v 2.117175 0.188907 -1.795704
v 0.859760 0.230031 -3.272482
v 2.040181 0.192435 -2.372595
v 2.039471 0.192583 -2.438265
v 2.085433 0.191076 -2.169757
v 2.060906 0.185863 -0.994227
v 1.438808 0.187150 -1.488843
v 1.131208 0.215258 -2.952233
v 2.025403 0.186585 -1.280645
v 1.996120 0.185436 -0.816856
v 2.060478 0.186347 -1.192904
v 1.897889 0.195535 -0.009426
v 1.573655 0.209852 -2.835052
v 0.053707 0.188712 -1.761758
v 1.947107 0.187136 -0.470787
v 1.960374 0.206213 -2.756167
v 1.431703 0.242711 0.762906
v 1.745423 0.208325 0.383774
v 1.482708 0.238850 0.782721
v 1.625440 0.217954 0.438418
v 1.273334 0.239364 -3.474793
v 1.723897 0.205300 0.273337
v 1.913803 0.187864 -1.613609
v 1.127821 0.297488 1.236806
v 0.915912 0.337411 1.431762
v 1.200532 0.278156 1.032782
v 1.099023 0.191654 -2.275880
v 1.045299 0.312012 1.250771
v 0.844939 0.494510 1.721105
v 0.844879 0.650559 1.977892
v 0.844966 0.447987 1.625377
v 0.537296 0.245671 -3.611491
v 0.844865 0.756546 -4.696102
v 0.844855 0.891369 -4.660887
v 0.844840 0.834396 2.138574
v 1.280678 0.233383 -3.345126
v 0.844877 0.884375 2.072396
v 0.844932 0.680184 1.873106
v 0.691310 0.350738 -4.402921
v 0.462315 0.350742 -4.397916
v 0.724627 0.350792 -4.322575
v 0.793913 0.350775 -4.348125
v 0.024972 0.350759 -4.371067
v 0.134584 0.350805 -4.301778
v 0.047166 0.350799 -4.311546
v 0.586648 0.350814 -4.289207
v 0.844748 0.648094 -4.654535
v 1.901182 0.243008 -3.553767
v 1.832304 0.212725 -2.897323
v 0.790519 0.233435 -3.346272
v -0.055672 0.348316 -4.372141
v -0.235974 0.279665 -3.877988
v -0.171853 0.288133 -3.869032
v -0.050660 0.330804 -4.150233
v -0.156126 0.192296 -2.388122
v -0.380940 0.206331 -2.737391
v -0.296557 0.230453 -3.223954
v -0.261854 0.243122 -3.490168
v 2.073338 0.189061 -1.822749
v -0.263280 0.225352 -3.090816
v -0.304464 0.203066 -2.633985
v -0.306742 0.210527 -2.793278
v -0.372813 0.191183 -2.159177
v -0.421501 0.189225 -1.838533
v -0.438396 0.188010 -1.632328
v -0.368220 0.190287 -2.004524
v -0.361561 0.187405 -1.529495
v -0.375374 0.187766 -1.588976
v 1.777893 0.225477 -3.173746
v -0.378337 0.185352 -0.759973
v -0.416753 0.186078 -1.074492
v -0.300950 0.185178 -0.703459
v 1.126945 0.223293 -3.126405
v -0.331005 0.184955 -0.602208
v 0.581805 0.236789 -3.418958
v -0.259687 0.187323 -0.449840
v -0.278976 0.186267 -0.497237
v -0.141213 0.197598 0.053507
v -0.268973 0.185058 -0.575565
v -0.186724 0.193061 -0.175235
v 0.001395 0.211776 0.397398
v -0.035738 0.204421 0.257779
v 0.362798 0.242542 -3.543683
v 0.096762 0.219959 0.458803
v 1.840391 0.225680 -3.178163
v 0.557237 0.187819 -1.605674
v 0.455656 0.271225 1.024923
v 0.874450 0.239901 -3.486417
v 0.549353 0.292883 1.230198
v 0.144084 0.237621 -3.437001
v 0.825526 0.346865 1.412664
v 0.606517 0.301863 1.205907
v 0.496059 0.279178 1.071836
v 1.455155 0.188107 -1.655998
v 1.490645 0.236916 -3.421715
v 1.276275 0.216037 -2.969123
v 1.664265 0.191656 -2.276186
v 0.612728 0.229158 -3.253558
v 0.844754 0.871891 2.238750
v 0.408578 0.220700 -3.070211
v 0.844822 0.782710 1.956817
v 0.725871 0.195742 -2.529200
v 0.956061 0.496540 -4.427107
v 1.480090 0.568493 -4.497423
v 1.322764 0.513107 -4.443297
v 1.312155 0.613409 -4.541315
v 1.110331 0.506790 -4.437124
v 1.232879 0.609067 -4.537072
v 1.037255 0.612925 -4.540842
v -0.302284 0.232491 -3.325805
v 0.856440 0.606181 -4.534252
v 1.236542 0.516063 -4.446187
v 1.125636 0.541119 -4.470671
v 1.009758 0.501955 -4.432400
v 1.457455 0.383188 -4.316337
v 1.568281 0.533373 -4.463102
v 0.448000 0.194987 -2.512822
v 0.678198 0.213269 -2.909115
v 1.463687 0.457343 -4.388803
v 0.048696 0.213355 -2.910984
v 1.427913 0.489550 -4.420277
v 0.117960 0.203000 -2.686512
v 1.669316 0.487513 -4.418287
v 1.638250 0.405432 -4.338075
v 1.728170 0.581551 -4.510183
v 1.757690 0.507679 -4.317549
v 1.814232 0.443281 -4.049979
v 0.323297 0.226291 -3.191411
v 1.730022 0.395579 -4.224318
v 1.701926 0.400344 -4.314763
v 1.915728 0.530471 -3.886208
v 0.372955 0.208118 -2.797461
v 1.787555 0.513494 -4.238391
v 1.855975 0.473888 -3.974426
v 1.873739 0.390191 -3.807677
v 1.813997 0.317258 -3.876526
v 0.358698 0.201008 -2.643344
v 1.940834 0.387691 -3.614518
v 1.927043 0.466238 -3.761304
v 1.848351 0.280874 -3.729451
v -0.188273 0.223769 -3.136725
v 2.057996 0.471981 -2.788140
v 2.061306 0.377158 -2.486092
v 2.032761 0.408058 -2.847170
v 0.428530 0.197401 -2.565149
v -0.199366 0.214527 -2.936396
v 2.074136 0.427749 -2.507667
v 2.016677 0.475932 -3.183492
v 2.001230 0.485188 -3.357945
v 1.516420 0.195258 -2.518697
v 1.959916 0.411457 -3.525758
v 2.014310 0.491779 -3.253993
v 1.965296 0.411297 -3.474287
v 1.996663 0.372626 -3.073429
v 2.017201 0.327736 -2.762930
v 1.999102 0.284477 -2.804373
v 1.914833 0.248524 -3.461196
v 2.009683 0.434889 -3.130922
v 1.983123 0.271411 -2.911407
v 0.942886 0.195367 -2.521055
v 2.021687 0.394804 -2.910632
v 1.988278 0.325093 -3.015553
v 2.010943 0.421254 -3.081373
v 1.999198 0.302352 -2.853624
v 2.094974 0.462021 -2.161614
v 2.080922 0.408146 -2.120650
v 2.075964 0.416950 -2.411298
v 2.113572 0.471257 -1.534955
v 2.079401 0.380731 -1.879424
v 2.101376 0.441298 -1.683676
v 2.079225 0.385274 -1.936177
v 0.330693 0.220016 -3.055381
v 1.084267 0.202988 -2.686257
v 2.033202 0.249615 -2.249510
v 2.032280 0.209645 -1.872570
v 2.090908 0.381530 -1.455259
v -0.055816 0.209863 -2.835292
v 0.256547 0.231846 -3.311814
v 2.025390 0.214102 -2.174850
v 0.996555 0.190342 -2.046701
v 2.066990 0.308449 -1.595106
v 0.057239 0.233690 -3.351788
v 2.037132 0.190623 -1.496539
v 2.079791 0.355580 -1.395327
v 2.108322 0.457019 -1.380958
v 2.048041 0.241233 -1.416595
v 2.057993 0.465904 -0.730250
v 2.090353 0.455386 -1.165937
v 2.038479 0.241505 -1.298061
v 2.068487 0.444412 -0.936612
v 2.089160 0.428057 -1.249635
v 2.046285 0.291674 -1.213443
v 0.170832 0.206796 -2.768816
v 1.990454 0.291112 -0.555359
v 2.010854 0.221713 -1.044215
v 2.029816 0.413641 -0.577376
v 0.281880 0.202417 -2.673882
v 2.022413 0.275206 -0.987781
v 1.049122 0.208410 -2.803805
v 0.925186 0.205999 -2.751523
v -0.238034 0.193204 -2.474182
v 2.033886 0.190013 -1.428547
v 1.880340 0.439939 0.032077
v 1.931482 0.290953 -0.342709
v 1.915573 0.290804 -0.290326
v 1.048677 0.197666 -2.570890
v 1.848968 0.397237 0.076821
v 1.960211 0.329609 -0.384300
v 2.007012 0.390611 -0.454774
v 1.948188 0.387701 -0.264337
v 1.836895 0.491208 0.246488
v 1.759426 0.379255 0.332078
v 0.099105 0.191672 -2.279068
v 1.866768 0.195246 -0.275791
v 1.773923 0.200255 0.022839
v 1.792162 0.326247 0.151278
v 1.817472 0.330061 0.077500
v 1.762475 0.268383 0.159142
v 1.444802 0.200800 -2.638837
v 1.601131 0.401980 0.625702
v 1.648382 0.383377 0.525501
v 1.653108 0.346028 0.473961
v 1.655280 0.284753 0.398672
v 1.597760 0.345958 0.565759
v 1.510674 0.498239 0.888476
v 1.350450 0.201647 -2.657198
v 0.776431 0.205469 -2.740047
v 1.705965 0.369143 0.413258
v 1.463262 0.486252 0.953158
v 1.389596 0.323163 0.862959
v 1.313034 0.312503 0.968132
v -0.398308 0.196477 -2.545120
v 1.538823 0.331019 0.641368
v 1.326135 0.266047 0.888122
v 1.406696 0.290378 0.794301
v 0.719194 0.204485 -2.718717
v 1.421262 0.419079 0.936995
v 1.600911 0.287360 0.488897
v 1.088822 0.547598 1.461334
v 0.996710 0.594549 1.602743
v 1.251922 0.324690 1.041000
v 0.706026 0.200064 -2.622883
v 0.919413 0.639204 1.727797
v 0.950741 0.586703 1.635285
v 1.130776 0.479167 1.339724
v 0.842709 0.208254 -2.800410
v 0.989526 0.384424 1.338661
v 1.013735 0.467781 1.428705
v 0.944974 0.373574 1.361090
v 0.852067 0.494682 1.597562
v 1.046949 0.373244 1.276540
v 1.071031 0.411179 1.306742
v 0.898045 0.197119 -2.559033
v 0.505679 0.190745 -2.117105
v 1.845998 0.812024 -3.940785
v 1.862202 0.847826 -3.791945
v 1.888997 0.752957 -3.830926
v 1.912837 0.753755 -3.707940
v 1.829026 0.872197 -3.915939
v 1.902659 0.637993 -3.959972
v 1.783360 0.706470 -4.376941
v 1.899896 0.605918 -4.005961
v 1.760799 0.740353 -4.433199
v 1.745663 0.744543 -4.490957
v 1.729972 0.739454 -4.561014
v 1.299076 0.206672 -2.766123
v 1.803254 0.702427 -4.299445
v 1.831905 0.702128 -4.181876
v 1.939041 0.610819 -3.838912
v 1.773427 0.837771 -4.263035
v 0.420239 0.227552 -3.218743
v 1.706305 0.912030 -4.467731
v 2.066375 0.634222 -1.419196
v 0.592470 0.224987 -3.163130
v 2.032022 0.707548 -1.700132
v 2.026825 0.732767 -1.444447
v 0.602460 0.222270 -3.104231
v 1.992532 0.793553 -1.986828
v 2.096033 0.557321 -1.463691
v 2.052741 0.655161 -1.702971
v 2.049925 0.674375 -1.447304
v 2.000962 0.780565 -1.812266
v 0.511398 0.212277 -2.887615
v 0.238913 0.195603 -2.526169
v 2.065063 0.584642 -2.417547
v 2.087114 0.527508 -2.419043
v 2.056705 0.613950 -2.282202
v 2.092248 0.522502 -2.273297
v 2.016330 0.715800 -2.328087
v 2.040970 0.660829 -2.173532
v 2.058772 0.614169 -2.184180
v 2.104373 0.524351 -1.688247
v 0.395891 0.190176 -2.017573
v 0.980629 0.204861 -2.726865
v 2.082888 0.575857 -1.289122
v 2.005062 0.727895 -0.961673
v 1.990956 0.706282 -0.657715
v 2.013534 0.727653 -1.078449
v 2.000885 0.752561 -1.026220
v 2.040474 0.622480 -0.930417
v -0.201500 0.208030 -2.795562
v 1.967046 0.749407 -0.539279
v 2.029305 0.718097 -1.250537
v -0.170309 0.228937 -3.248767
v 1.992526 0.646555 -0.441121
v 2.032504 0.598411 -0.741185
v 2.108612 0.497833 -1.278433
v 2.029255 0.554472 -0.534436
v 1.941807 0.768366 -0.291884
v 0.941190 0.215932 -2.966852
v 2.061574 0.550953 -0.911941
v 2.074971 0.548398 -1.064243
v 2.013885 0.648604 -0.707273
v 1.992962 0.585403 -0.319866
v 1.866298 0.750642 0.042474
v 0.309175 0.197062 -2.557809
v 1.789932 0.747368 0.349756
v 1.722117 0.799991 0.574693
v 1.771607 0.787709 0.387991
v 1.908562 0.650396 -0.039487
v 1.819944 0.785666 0.197044
v 1.871833 0.672835 0.087574
v 1.905134 0.600698 0.006889
v 1.765340 0.724909 0.452863
v 1.967373 0.551475 -0.193216
v 0.603664 0.219758 -3.049795
v 0.762858 0.218782 -3.028632
v 1.789402 0.571522 0.409732
v 0.592540 0.187491 -1.548333
v 0.594230 0.202939 -2.685192
v 1.543638 0.715426 0.968630
v 1.731537 0.631723 0.570197
v 1.418683 0.827837 1.241066
v 1.662821 0.800161 0.734058
v 1.658951 0.734091 0.733337
v 1.748951 0.574546 0.526763
v 1.426894 0.773791 1.217019
v 1.679011 0.604680 0.674934
v 1.712054 0.683563 0.617193
v 1.316607 0.839888 1.448976
v 1.319961 0.774086 1.404764
v 1.353613 0.576819 1.231367
v 1.353341 0.679987 1.292052
v 1.478691 0.722528 1.099865
v 1.372548 0.762656 1.307051
v 1.422055 0.646964 1.153814
v 1.470311 0.588134 1.035932
v 1.309619 0.631942 1.330651
v 1.245631 0.658892 1.424383
v 0.959125 0.878985 1.910228
v 1.075127 0.843836 1.749427
v 1.179437 0.698112 1.528892
v 1.282321 0.676443 1.392602
v 1.073552 0.896519 1.786353
v 1.010085 0.691504 1.689232
v 0.930886 0.782783 1.850866
v 1.061150 0.751606 1.695495
v 1.991164 0.187596 -1.566752
v 1.106385 0.623641 1.532749
v 0.269864 0.226932 -3.205305
v -0.024238 0.190683 -2.106287
v 0.884786 0.716246 1.833808
v 0.580664 0.516778 -4.446885
v 0.025403 0.207770 -2.789932
v 0.287112 0.408354 -4.340930
v 0.707858 0.495268 -4.425865
v -0.055002 0.221802 -3.094090
v 0.760761 0.414293 -4.346734
v 1.382957 0.193881 -2.488840
v 0.402671 0.430283 -4.362360
v 0.114464 0.228746 -3.244616
v 0.742056 0.618508 -4.546298
v 0.030896 0.591930 -4.520326
v -0.366476 0.198980 -2.599387
v 0.123675 0.601611 -4.529785
v 0.657744 0.192216 -2.374105
v -0.052459 0.640955 -4.568233
v 0.296925 0.642650 -4.569890
v 0.081461 0.225503 -3.174313
v 0.863499 0.192167 -2.365511
v 0.415180 0.504807 -4.435186
v 0.129232 0.407760 -4.340350
v 0.076239 0.423701 -4.355928
v 0.214857 0.476827 -4.407844
v -0.057617 0.583690 -4.469725
v -0.008121 0.362629 -4.269763
v 0.287092 0.209525 -2.827966
v -0.104988 0.527417 -4.253472
v -0.070008 0.431957 -4.204638
v -0.169165 0.286807 -3.710339
v -0.102530 0.475317 -4.180960
v -0.220292 0.484589 -3.845505
v -0.224870 0.320233 -3.598406
v -0.143844 0.589157 -4.224548
v -0.222726 0.524396 -3.894663
v -0.236184 0.380761 -3.650189
v -0.112171 0.619445 -4.363084
v -0.183280 0.392973 -3.827117
v -0.185561 0.567581 -4.068074
v -0.245502 0.449539 -3.719704
v -0.295652 0.298631 -2.958422
v -0.363987 0.433857 -2.706886
v 0.083523 0.198171 -2.581851
v -0.309538 0.319453 -2.889277
v -0.366489 0.403264 -2.601417
v -0.272668 0.236315 -2.997441
v 0.596867 0.198841 -2.596377
v -0.337601 0.262585 -2.481596
v -0.332008 0.336258 -2.731668
v -0.342129 0.351234 -2.680728
v 1.402843 0.191015 -2.164272
v -0.313257 0.507921 -3.410011
v -0.259603 0.376970 -3.521210
v -0.295002 0.491374 -3.532806
v -0.273313 0.190018 -1.990019
v -0.292225 0.540265 -3.707425
v -0.285789 0.493505 -3.626568
v -0.367863 0.475525 -2.794284
v -0.321700 0.413564 -3.043777
v -0.343725 0.497178 -3.088699
v -0.298963 0.373335 -3.137199
v -0.329913 0.405230 -2.940663
v -0.367662 0.355098 -2.458792
v -0.353225 0.259892 -2.002479
v -0.386260 0.421749 -2.462555
v 0.447712 0.207430 -2.782548
v -0.390232 0.421340 -2.310604
v -0.357330 0.247564 -1.721290
v 0.523380 0.216200 -2.972650
v 0.931670 0.218352 -3.019311
v -0.335176 0.206128 -2.112698
v 1.273224 0.198664 -2.592535
v -0.404647 0.456019 -2.124774
v -0.419458 0.485107 -1.859228
v -0.373297 0.318378 -1.864304
v -0.378857 0.309886 -1.554743
v -0.410559 0.439328 -1.712760
v -0.426469 0.482811 -1.559857
v 1.892172 0.188771 -1.772142
v -0.356259 0.234221 -1.621611
v -0.037457 0.233757 -3.353246
v -0.325818 0.244999 -1.024596
v -0.338119 0.261225 -1.113101
v 0.287954 0.223639 -3.133923
v -0.389495 0.344859 -1.428142
v -0.349291 0.313655 -1.063689
v -0.324348 0.190099 -1.196407
v -0.373697 0.308856 -1.366695
v 0.834042 0.188789 -1.775135
v -0.361085 0.392539 -0.919934
v -0.333188 0.384417 -0.607271
v -0.376365 0.478542 -0.786401
v -0.384385 0.432471 -1.057194
v 1.465412 0.197119 -2.559031
v -0.363306 0.365697 -1.047558
v -0.378337 0.451932 -0.910105
v -0.344284 0.443970 -0.521143
v -0.291607 0.256570 -0.573785
v -0.343458 0.454347 -0.472214
v -0.204976 0.245305 -0.297214
v -0.106174 0.197845 -0.049870
v -0.231137 0.307769 -0.295889
v 0.370002 0.203911 -2.706270
v -0.271807 0.415458 -0.279662
v -0.163330 0.239420 -0.174047
v -0.093691 0.208098 0.003139
v -0.306263 0.367248 -0.452639
v -0.121664 0.500710 0.343155
v -0.120099 0.315347 0.069070
v -0.096617 0.288002 0.105304
v -0.098214 0.471477 0.376438
v -0.086124 0.370688 0.264464
v -0.168681 0.493888 0.177854
v -0.112791 0.411038 0.237323
v 1.583223 0.192717 -2.461750
v 1.396789 0.207149 -2.776451
v 0.048706 0.264424 0.390231
v 0.122322 0.287525 0.532398
v 0.269324 0.280100 0.754624
v 0.156200 0.283658 0.581130
v 0.802034 0.187822 -1.606253
v 0.295558 0.218183 -3.015648
v 1.459101 0.206224 -2.756409
v -0.010323 0.429520 0.487646
v 0.152035 0.374763 0.679484
v 0.138827 0.504957 0.825627
v 0.257386 0.470939 0.976612
v 0.286865 0.359292 0.880588
v 0.231075 0.388559 0.826703
v 0.183896 0.498118 0.890909
v 0.222157 0.454704 0.897648
v 0.334656 0.381473 0.987911
v 0.343120 0.479611 1.128860
v 0.287750 0.414653 0.953703
v 0.493191 0.191469 -2.243572
v 0.446831 0.476622 1.228245
v 0.414731 0.466588 1.188908
v 0.610376 0.380641 1.250882
v 0.451278 0.431564 1.177560
v 0.521670 0.339188 1.125587
v 0.671471 0.318485 1.227553
v 0.644911 0.426953 1.336130
v 0.614608 0.556609 1.479020
v -0.214988 0.243589 -3.566379
v -0.384626 0.188254 -1.681663
v 0.637250 0.579935 1.530080
v 0.744436 0.213627 -2.916894
v 0.750247 0.512582 1.542382
v 0.809772 0.480308 1.553093
v 0.665352 0.524866 1.482568
v -0.177872 0.652140 -4.063947
v -0.207910 0.669712 -3.905746
v -0.231183 0.692404 -3.768765
v -0.147314 0.665468 -4.175352
v -0.090077 0.728662 -4.330084
v -0.066354 0.873112 -4.260642
v -0.062722 0.750174 -4.434484
v -0.055821 0.722744 -4.502609
v -0.008968 0.916081 -4.482402
v -0.051511 0.853137 -4.357539
v -0.095704 0.801555 -4.210278
v 0.384070 0.343385 -4.378607
v -0.118853 0.856553 -4.028831
v -0.185348 0.747388 -3.880301
v -0.205035 0.748564 -3.793030
v -0.104172 0.720315 -4.275421
v 1.079273 0.331075 -4.282383
v -0.127895 0.685188 -4.228283
v -0.379204 0.614339 -1.654973
v -0.332214 0.739657 -1.523877
v -0.397474 0.579100 -1.460911
v -0.393802 0.566826 -1.851664
v -0.408422 0.516090 -2.105898
v -0.355324 0.683645 -1.486237
v -0.416558 0.513311 -1.784803
v -0.411346 0.536466 -1.602069
v 1.750261 0.273641 -3.833440
v -0.358791 0.657669 -1.799892
v -0.338316 0.697458 -2.062920
v -0.328806 0.739186 -1.713688
v -0.376547 0.589282 -2.248150
v -0.303742 0.790707 -1.989108
v -0.320079 0.774673 -1.450558
v -0.371754 0.591659 -2.453743
v -0.367499 0.615997 -2.181502
v -0.361418 0.642480 -1.962240
v -0.391641 0.538720 -2.481915
v -0.328296 0.720181 -2.129528
v -0.307043 0.785466 -1.921249
v -0.346844 0.563603 -0.690868
v -0.384033 0.575396 -1.190398
v -0.339582 0.669692 -1.054919
v -0.332699 0.702017 -1.109413
v -0.392074 0.532086 -1.103119
v -0.338751 0.717424 -1.248140
v -0.371350 0.504498 -0.735249
v -0.370952 0.632789 -1.276770
v -0.366160 0.610634 -1.124517
v -0.384057 0.517560 -0.944395
v -0.286422 0.668394 -0.327110
v -0.269488 0.732494 -0.378303
v -0.282933 0.752431 -0.655062
v -0.286081 0.755440 -0.712424
v -0.320191 0.654644 -0.736184
v -0.311557 0.651934 -0.603687
v -0.336435 0.579251 -0.624754
v -0.282163 0.733984 -0.561658
v -0.317837 0.748216 -1.122689
v -0.385732 0.192042 -2.343778
v -0.301803 0.794925 -1.108502
v -0.231707 0.517552 -0.035520
v -0.282358 0.542728 -0.226758
v -0.238268 0.693988 -0.175645
v -0.172080 0.602881 0.113030
v 1.247269 0.339189 -4.345808
v 1.122008 0.291161 -3.970389
v 1.518057 0.285784 -3.928357
v -0.204217 0.677109 -0.047109
v -0.208702 0.715677 -0.088248
v -0.141411 0.632430 0.206667
v -0.065312 0.696297 0.481429
v -0.166455 0.691757 0.083482
v -0.135364 0.770392 0.174316
v -0.188025 0.706165 -0.007654
v -0.109627 0.706078 0.302273
v -0.071844 0.639765 0.478659
v -0.085288 0.744034 0.383004
v 0.025010 0.706511 0.700167
v 0.218676 0.555391 1.011971
v -0.026331 0.580909 0.582200
v 0.157821 0.654566 0.925011
v 0.451544 0.189099 -1.829467
v 0.046031 0.661853 0.727989
v 0.104988 0.703720 0.841639
v 0.025086 0.573806 0.672018
v 1.688023 0.319140 -4.189095
v 0.205473 0.707239 1.034604
v 0.239804 0.839440 1.175211
v 0.131236 0.770968 0.920197
v 0.283032 0.700484 1.186584
v 0.173664 0.718552 0.976909
v 0.359642 0.735035 1.359065
v 0.816045 0.312080 -4.133905
v 0.354390 0.675722 1.316351
v 0.375847 0.860511 1.459648
v 0.608601 0.625894 1.555826
v 0.429867 0.660061 1.397816
v 0.428718 0.582941 1.343383
v 0.500556 0.646674 1.460395
v 0.606995 0.744350 1.636008
v 0.414852 0.845505 1.510641
v 0.473384 0.804980 1.542125
v 1.010979 0.187322 -1.518776
v 0.713099 0.873900 1.870195
v 0.781857 0.767360 1.848873
v 0.631945 0.855627 1.761608
v 0.720417 0.721027 1.736481
v 0.681186 0.926237 1.882773
v 0.837723 0.848821 1.987596
v 1.993722 0.725267 -2.697231
v 0.556333 0.347552 -4.411176
v 1.958378 0.811930 -2.711328
v 1.964368 0.783591 -2.795294
v 1.970593 0.752843 -2.881380
v 0.637395 0.316801 -4.170805
v 1.969722 0.744891 -2.937044
v 0.158009 0.349849 -4.429133
v 1.910785 0.787789 -3.574417
v 1.886556 0.839876 -3.665457
v 1.906370 0.819586 -3.469714
v 1.955549 0.714335 -3.306994
v 1.964353 0.703945 -3.236383
v 1.974917 0.697739 -3.117720
v 2.013857 0.568114 -3.257787
v 1.990993 0.573689 -3.531914
v 1.474033 0.317882 -4.179255
v 1.969468 0.672460 -3.333253
v 1.354992 0.303749 -4.068782
v 1.969450 0.645044 -3.482060
v 2.066644 0.553257 -2.602822
v 2.039569 0.617555 -2.620537
v 2.042753 0.566839 -2.851620
v 2.027912 0.579752 -2.993082
v 2.039096 0.605458 -2.692521
v 1.880006 0.273799 -3.834671
v -0.348902 0.645237 -2.483236
v -0.360240 0.528019 -2.963666
v 1.691489 0.349259 -4.424517
v -0.336315 0.607887 -2.867130
v -0.323144 0.625714 -2.960412
v -0.317499 0.629324 -3.022242
v -0.281451 0.608759 -3.629080
v -0.309010 0.552001 -3.530370
v -0.291378 0.607408 -3.505119
v -0.326612 0.569961 -3.212560
v -0.280318 0.665743 -3.360953
v -0.255658 0.683404 -3.620799
v -0.218526 0.790538 -3.598183
v -0.231194 0.748251 -3.632481
v -0.225781 0.823895 -3.304760
v -0.255547 0.759532 -3.209827
v -0.264008 0.759574 -3.087596
v 1.288021 0.334155 -4.306455
v -0.328063 0.701247 -2.465774
v 1.523068 0.188869 -1.789241
v -0.306532 0.737115 -2.581472
v -0.300005 0.696392 -2.911005
v -0.287579 0.712147 -3.004780
v -0.300088 0.717770 -2.793950
v -0.069085 0.963647 0.653528
v -0.063134 0.878196 0.605562
v -0.049838 0.809919 0.669432
v -0.046730 0.802300 0.596904
v 1.799324 0.969297 0.550269
v 1.771046 0.940461 0.670114
v 1.797974 0.816769 0.510629
v -0.428013 0.190378 -2.052827
v -0.365646 0.796227 -1.717076
v -0.301532 0.789640 -1.732769
v 1.918592 0.256878 -3.702407
v 1.065334 0.188547 -1.732946
v -0.320980 0.902821 -1.744478
v -0.360993 0.906617 -1.789474
v -0.316432 0.911002 -1.838207
v 1.160098 0.190178 -2.017872
v 1.633990 0.270549 -3.809268
v 0.998832 0.191849 -2.309962
v 0.769511 0.327809 -4.256850
v 2.041847 0.843003 -1.806768
v 1.735452 0.304054 -4.071165
v 2.022203 0.913731 -1.713189
v 2.004753 0.916964 -1.827186
v 0.402479 0.805017 -4.590587
v 0.097936 0.660044 -4.583548
v 0.564987 0.800663 -4.590376
v 0.689478 0.794888 -4.590096
v 0.762993 0.721754 -4.586545
v 1.613725 0.305174 -4.079922
v 1.742207 0.323597 -4.223928
v 0.776128 0.663285 -4.583705
v 0.737613 0.342872 -4.374596
v 0.253671 0.931788 -4.596743
v 0.011612 0.703956 -4.585680
v 0.477511 0.949786 -4.597617
v 0.101552 0.919670 -4.596154
v 0.383999 0.857803 -4.593150
v 0.721420 0.937651 -4.597027
v 0.150821 0.189847 -1.960181
v 0.923786 0.850787 -4.592810
v 1.304136 0.933036 -4.596803
v 1.132507 0.944531 -4.597362
v 1.958815 0.191445 -2.239401
v 1.167191 0.840391 -4.592305
v 1.579867 0.326003 -4.242733
v 0.908110 0.685786 -4.584798
v 1.078019 0.769941 -4.588884
v 1.573903 0.801889 -4.590436
v 1.690327 0.854467 -4.592988
v 1.615742 0.895001 -4.594956
v 1.426502 0.801907 -4.590436
v 1.489895 0.699556 -4.585466
v 0.639990 0.192496 -2.423098
v 1.739430 0.657829 -4.583441
v 1.314238 0.746390 -4.587741
v 1.562460 0.677558 -4.584398
v 0.518803 0.898860 1.885091
v 0.796012 0.952558 2.205203
v 1.445854 0.189745 -1.942354
v 0.730285 0.939856 2.043710
v 0.439505 0.878646 1.628525
v 0.834147 0.959936 2.090280
v 0.497070 0.894616 1.816792
v 0.886786 0.303892 -4.069902
v 0.232426 0.849714 1.304159
v 0.328570 0.862475 1.552462
v 0.141484 0.840055 1.206196
v 0.355417 0.864058 1.509351
v 1.243738 0.319743 -4.193806
v -0.021190 0.818401 0.839728
v 1.457526 0.192664 -2.452422
v 0.089255 0.830071 0.976189
v -0.132960 0.808171 0.460289
v -0.093134 0.809835 0.521912
v 1.871593 0.191712 -2.286103
v -0.317407 0.796268 -0.163714
v 0.895042 0.190620 -2.095198
v -0.203155 0.801220 0.048985
v -0.295632 0.796737 -0.540146
v -0.294714 0.796220 -0.271841
v 0.306027 0.332579 -4.294138
v -0.353460 0.797860 -1.081353
v -0.313732 0.797276 -0.799206
v -0.336890 0.798240 -1.257000
v -0.374588 0.801756 -1.992506
v -0.388623 0.798520 -1.327557
v 1.721113 0.263290 -3.752527
v -0.375051 0.799490 -1.527597
v -0.342918 0.800843 -1.803260
v -0.348033 0.803371 -2.302001
v 1.570172 0.190559 -2.084565
v -0.292728 0.834407 -3.177264
v -0.288535 0.838502 -3.287083
v -0.313299 0.827006 -2.995156
v -0.315189 0.824961 -2.940046
v 0.033345 0.192273 -2.384030
v -0.309079 0.809714 -2.557664
v -0.273099 0.830107 -3.049214
v 0.520986 0.189839 -1.958774
v -0.069810 0.950607 -4.659996
v -0.205411 0.862724 -3.775034
v -0.142045 0.917724 -4.355575
v -0.144777 0.879720 -3.888693
v -0.066751 0.936087 -4.465698
v 0.012431 0.957757 -4.574256
v 1.812577 0.188808 -1.778532
v 0.090948 0.962018 -4.700805
v 0.410473 0.962030 -4.680394
v 0.595774 0.962005 -4.722676
v 0.500542 0.961995 -4.740138
v 0.038910 0.285168 -3.923546
v 0.337015 0.303811 -4.069273
v 0.695179 0.962008 -4.717548
v 0.839634 0.962018 -4.701096
v 1.007564 0.929139 2.080123
v 1.066390 0.918921 2.042018
v 1.277820 0.874761 1.666812
v 0.974714 0.934590 2.042742
v 0.960568 0.937636 1.951224
v 0.100126 0.302119 -4.056047
v 1.692930 0.818133 0.807658
v 1.536609 0.840739 1.232802
v 1.672114 0.825652 1.008955
v 1.590281 0.832907 1.084546
v 1.464119 0.847001 1.273424
v 1.377307 0.859083 1.477687
v 1.411077 0.854840 1.422248
v 1.908738 0.799309 -0.046931
v 1.824448 0.809907 0.611985
v 1.864721 0.805220 0.323493
v 1.760255 0.809182 0.446372
v 0.814617 0.277803 -3.865975
v 1.769403 0.812320 0.712368
v 2.047647 0.797362 -0.822775
v 2.025967 0.797837 -1.054825
v 0.684523 0.305155 -4.079772
v 1.990537 0.797166 -0.729641
v 1.978132 0.796387 -0.352080
v 1.959300 0.796880 -0.602104
v 0.619674 0.283938 -3.913932
v 2.003419 0.803715 -2.345674
v 2.082130 0.800118 -1.643294
v 1.459069 0.187565 -1.561329
v 2.041400 0.800553 -1.721005
v 2.015245 0.799470 -1.513424
v 2.050346 0.818375 -2.815068
v 1.079774 0.249539 -3.645043
v 1.979360 0.848582 -3.581593
v 1.978089 0.843954 -3.459234
v 1.946825 0.848097 -3.532396
v 1.940378 0.852682 -3.645538
v 1.965404 0.841872 -3.391158
v 0.645086 0.187040 -1.469512
v 1.943875 0.868978 -3.908309
v 1.743983 0.948543 -4.591584
v 1.866044 0.897067 -4.132752
v 0.794810 0.257384 -3.706365
v 1.771548 0.920197 -4.263130
v 0.196868 0.285746 -3.928059
v 1.225458 0.962035 -4.671916
v 1.082230 0.961984 -4.759090
v 1.267850 0.961979 -4.768061
v 1.142720 0.961988 -4.752216
v 1.423387 0.962046 -4.653917
v 0.232663 0.258093 -3.711909
v 1.006952 0.962061 -4.627751
v 1.151555 0.962046 -4.653718
v 0.209485 0.617122 -3.674392
v 1.545125 0.599006 -3.258208
v 1.628236 0.602643 -3.341748
v 0.068520 0.617352 -3.679671
v 1.463508 0.599519 -3.269992
v 0.861844 0.610876 -3.530886
v 1.587564 0.610498 -3.522202
v 0.210145 0.273835 -3.834958
v 1.570348 0.606452 -3.429258
v 1.196066 0.617030 -3.672265
v 1.319724 0.604586 -3.386389
v 0.340924 0.281510 -3.894946
v 0.681038 0.609962 -3.509896
v 1.124457 0.612782 -3.574677
v 0.154392 0.614690 -3.618520
v 1.780535 0.600696 -3.297031
v 0.487253 0.611567 -3.546780
v 1.719918 0.616823 -3.667510
v 0.913169 0.266241 -3.775593
v 1.684110 0.607151 -3.445321
v 1.340610 0.614499 -3.614117
v 1.541207 0.601449 -3.314333
v 1.887890 0.601589 -3.317549
v 0.437204 0.611933 -3.555171
v -0.123237 0.272758 -3.826542
v 1.138393 0.616821 -3.667478
v 1.447737 0.617515 -3.683411
v 0.869561 0.292133 -3.977983
v 1.661247 0.616220 -3.653662
v 0.902879 0.615338 -3.633400
v 1.683228 0.602556 -3.339760
v 1.045730 0.606348 -3.426874
v 1.396038 0.616797 -3.666929
v 0.455891 0.283588 -3.911193
v 1.576627 0.595059 -3.167515
v -0.142910 0.602349 -3.334994
v 0.164677 0.599965 -3.280232
v -0.122711 0.598623 -3.249393
v -0.212866 0.597723 -3.228730
v 0.068597 0.603057 -3.351275
v 0.717895 0.601490 -3.315270
v 0.309984 0.602387 -3.335887
v -0.172271 0.599593 -3.271692
v 1.454754 0.595711 -3.182518
v 0.331941 0.595729 -3.182909
v 0.419200 0.601465 -3.314685
v 1.436097 0.257290 -3.705633
v 0.553851 0.596243 -3.194718
v -0.041296 0.607352 -3.449942
v 1.324926 0.595719 -3.182685
v 1.550793 0.267588 -3.786130
v 1.174346 0.597331 -3.219713
v -0.187669 0.264594 -3.762720
v 0.011508 0.598297 -3.241915
v 0.433926 0.605873 -3.415966
v 1.188243 0.594807 -3.161730
v 0.631883 0.594701 -3.159307
v 0.616348 0.606678 -3.434453
v 0.116712 0.605182 -3.400089
v 0.368784 0.607650 -3.456778
v 0.058251 0.191068 -2.173419
v 1.233907 0.260550 -3.731116
v 0.010694 0.258507 -3.715144
v 1.253077 0.599294 -3.264820
v 0.996614 0.595466 -3.176881
v -0.013573 0.614960 -3.624721
v 0.504920 0.605318 -3.403203
v 1.920606 0.188480 -1.721304
v 0.484861 0.259478 -3.722736
v 1.907126 0.598267 -3.515303
v 1.916979 0.591899 -3.589658
v 0.719010 0.271985 -3.820499
v 1.971983 0.562224 -3.370811
v 0.314808 0.593810 -3.695684
v 0.433510 0.604815 -3.690603
v 1.250015 0.610027 -3.688197
v 0.153862 0.192469 -2.418283
v 1.249317 0.190033 -1.992544
v 1.929243 0.583272 -3.700550
v 0.095345 0.560832 -3.710910
v 1.515344 0.557489 -3.712453
v 0.979909 0.577722 -3.703112
v -0.261332 0.574954 -3.288958
v -0.226219 0.593110 -3.512322
v -0.290694 0.555408 -3.577883
v -0.325280 0.538270 -3.276634
v 1.675710 0.557561 -3.118826
v 1.756275 0.554415 -3.117421
v -0.432786 0.187388 -1.530330
v 0.360281 0.259929 -3.726256
v 1.068054 0.280872 -3.889959
v 0.587289 0.547852 -3.114489
v 1.072362 0.543266 -3.112441
v 0.998897 0.546720 -3.113984
v -0.178034 0.565720 -3.122471
v 0.929714 0.285320 -3.924731
v 0.805709 0.557984 -3.119015
v 0.761829 0.293550 1.280058
v 0.669505 0.297293 1.301226
v 0.861810 0.294317 1.284395
v -0.167522 0.302654 -4.060224
v 1.825358 0.191533 -2.254703
v 0.080610 0.295476 -4.004119
v 1.180233 0.262392 1.103872
v 1.102981 0.188774 -1.772642
v -0.366926 0.191544 -2.256637
v 0.922907 0.308419 1.364139
v 0.944987 0.294690 1.286505
v 0.653574 0.309258 1.368883
v 1.596966 0.246949 -3.624797
v 0.972596 0.314368 1.397778
v 0.717135 0.263743 1.111509
v 0.489777 0.288269 -3.947783
v 1.256476 0.249219 0.968723
v 1.263840 0.215215 0.492934
v 0.910966 0.206136 0.365901
v 0.506032 0.205107 0.351516
v 1.148882 0.235963 0.783243
v 1.079514 0.215914 0.502723
v 0.531501 0.208193 0.394693
v 1.139320 0.213327 0.466520
v 1.543983 0.246708 -3.622911
v 0.704725 0.228918 0.684675
v 1.277105 0.245521 0.916977
v 1.106194 0.207043 0.378604
v 1.196171 0.214579 0.484042
v 0.873575 0.213704 0.471793
v 0.989210 0.208618 0.400635
v 1.267735 0.241488 0.860548
v 1.578974 0.206092 0.365296
v 1.316297 0.274559 -3.840619
v -0.130601 0.291242 -3.971022
v 0.636043 0.223579 0.609964
v 1.467966 0.204350 0.340915
v 1.504553 0.223509 0.608984
v 0.447586 0.208093 0.393293
v 1.241277 0.248911 -3.640131
v 1.370074 0.250292 0.983731
v 0.449360 0.218622 0.540615
v 0.615643 0.207475 0.384637
v 1.299517 0.187042 -1.469887
v 1.359230 0.214969 0.489494
v 1.423564 0.267300 -3.783873
v 0.320809 0.214754 0.486490
v 1.668081 0.206966 0.377525
v 1.373423 0.203739 0.332372
v 0.206357 0.192256 -2.381140
v 1.042943 0.238506 0.818824
v 1.011267 0.228535 0.679316
v 0.679914 0.216277 0.507794
v 0.697985 0.210806 0.431255
v 0.142678 0.205551 0.357717
v 0.499225 0.219341 0.550670
v 1.748938 0.250728 -3.654335
v 0.574614 0.210071 0.420959
v 1.097955 0.219503 0.552940
v 1.159347 0.281618 -3.895795
v 0.372398 0.221734 0.584154
v 0.101255 0.218788 0.542926
v 0.563437 0.236731 0.793997
v 0.166364 0.230557 0.707597
v 1.043123 0.251159 0.995866
v 0.293677 0.218816 0.543330
v 0.491725 0.234697 0.765534
v 0.522681 0.189206 -1.848079
v 0.496860 0.241173 0.856141
v 0.055654 0.216656 0.513100
v 1.391605 0.251970 -3.664049
v -0.005663 0.214681 0.485468
v 0.817140 0.244340 0.900455
v 0.365352 0.240513 0.846906
v 1.009381 0.189788 -1.949778
v 0.714917 0.247263 0.941355
v 0.875055 0.254435 1.041704
v 0.062907 0.221883 0.586232
v 0.244701 0.229184 0.688398
v 0.739106 0.237028 0.798140
v 0.290073 0.240619 0.848394
v 1.770672 0.191463 -2.242512
v -0.073607 0.204180 0.338544
v 1.003065 0.187210 -0.399574
v -0.121468 0.186222 -0.446310
v 1.063868 0.192690 -0.140369
v 1.799551 0.201704 0.286031
v 1.259899 0.194770 -0.041955
v 1.708704 0.187182 -0.400857
v 1.699634 0.191545 -0.194511
v 0.613664 0.188049 -1.645849
v 0.854738 0.191425 -0.200164
v 0.032062 0.323503 -4.223192
v 0.167686 0.187523 -1.554002
v 2.011789 0.187622 -0.380066
v 0.187090 0.252150 -3.665450
v 0.652195 0.192846 -0.132994
v 1.737490 0.188104 -0.357263
v 0.839408 0.189189 -0.305971
v 0.813978 0.187453 -0.388061
v 1.240594 0.196595 0.044376
v 1.585572 0.193228 -0.114909
v 1.743346 0.185813 -0.465641
v 1.529875 0.195402 -0.012077
v 1.122275 0.185091 -0.499777
v 0.815086 0.192859 -0.132355
v 1.387580 0.542537 -3.506021
v 1.833538 0.540595 -3.461410
v 0.073453 0.184807 -0.513216
v 1.331057 0.191206 -0.210563
v 0.479844 0.189964 -0.269288
v 0.817941 0.542193 -3.498116
v 1.297526 0.550328 -3.685010
v 1.379020 0.198288 0.124428
v 1.336848 0.186905 -0.414005
v 0.525200 0.188898 -0.319709
v 1.087529 0.187501 -0.385777
v 1.717753 0.539227 -3.429967
v 1.146192 0.537937 -3.400347
v 1.427963 0.550451 -3.687817
v 1.792799 0.530263 -3.224051
v 0.697746 0.187464 -0.387542
v 1.457625 0.540644 -3.462529
v 1.602474 0.190381 -0.249572
v 1.915282 0.191334 -0.204504
v 1.431834 0.185737 -0.469224
v 0.928147 0.189761 -0.278887
v 1.679801 0.199330 0.173734
v 1.423919 0.186824 -0.417817
v 1.612675 0.549270 -3.660690
v 0.567908 0.543809 -3.535239
v 1.417429 0.192422 -0.153020
v 0.960457 0.188888 -0.320194
v 1.642287 0.536653 -3.370834
v 1.701867 0.198326 0.126248
v 1.577033 0.545741 -3.579621
v 1.588900 0.195572 -0.004054
v 0.159620 0.549254 -3.660316
v 1.060685 0.190628 -0.237873
v 1.505445 0.185498 -0.480545
v 1.763583 0.190535 -0.242307
v -0.207369 0.184923 -0.507712
v 0.045692 0.187343 -1.522598
v 0.109228 0.195251 -0.019198
v 0.101335 0.197637 0.093641
v 0.060531 0.196547 0.042070
v 0.031698 0.198180 0.119347
v -0.120096 0.201316 0.267645
v 0.270004 0.191857 -0.179772
v 0.076381 0.193336 -0.109803
v 0.770265 0.200985 0.252023
v 1.607782 0.200945 0.250099
v 0.403205 0.195671 0.000667
v 1.115151 0.198189 0.119752
v 0.513229 0.201218 0.263020
v 0.334544 0.200876 0.246855
v 1.258240 0.541485 -3.481846
v 0.826721 0.197359 0.080497
v 0.296429 0.189502 -1.899758
v -0.137388 0.188596 -0.334016
v 0.589682 0.192982 -0.126526
v 0.968851 0.540203 -3.452406
v 1.280588 0.201726 0.287071
v 0.978483 0.199900 0.200698
v 0.414638 0.201938 0.297094
v -0.297063 0.187192 -0.400426
v 0.507133 0.194709 -0.044859
v 0.593533 0.195462 -0.009255
v -0.098843 0.197506 0.087440
v 0.178043 0.192328 -0.157479
v 1.474235 0.199836 0.197664
v 0.201838 0.195343 -0.014862
v 0.717279 0.540607 -3.461683
v -0.102332 0.199502 0.181875
v 0.481816 0.192038 -0.171178
v 0.316736 0.190636 -0.237502
v 0.866206 0.195277 -0.017973
v 0.584026 0.198263 0.123271
v 0.720571 0.201886 0.294610
v -0.075551 0.193420 -0.105820
v 1.084750 0.200418 0.225193
v 0.975022 0.548528 -3.643648
v 1.240407 0.198450 0.132078
v 1.009753 0.200914 0.248648
v 0.269239 0.201282 0.266036
v -0.090444 0.192222 -0.162479
v 0.632685 0.201778 0.289507
v 0.732481 0.195206 -0.021330
v 0.641685 0.197258 0.075735
v 0.987402 0.196534 0.041480
v 1.113903 0.186702 -1.343911
v 0.771867 0.185939 -1.016224
v 0.369148 0.186840 -1.403274
v 0.931337 0.186531 -1.270524
v 1.333437 0.185992 -1.038999
v 1.927505 0.186777 -1.376263
v 0.459264 0.547085 -3.610493
v 1.471981 0.186881 -1.420717
v 1.232692 0.543702 -3.532775
v 1.463938 0.185868 -0.985503
v 0.002392 0.186610 -1.304253
v 1.186427 0.186722 -1.352768
v -0.094208 0.186855 -1.409558
v 1.275557 0.185531 -0.840728
v 1.696506 0.186073 -1.073468
v 1.885056 0.541044 -3.471708
v 0.682834 0.186840 -1.403460
v 1.203830 0.186161 -1.111447
v 1.472652 0.186732 -1.356773
v 1.726479 0.186653 -1.322937
v 1.058138 0.185896 -0.997426
v 1.526370 0.185919 -1.007475
v 0.217174 0.186538 -1.273396
v -0.193595 0.186805 -1.388316
v 1.209594 0.186027 -1.053780
v 1.651319 0.186488 -1.251926
v 0.134115 0.186689 -1.338326
v 0.629347 0.186305 -1.173503
v 0.824727 0.186948 -1.449525
v 1.993020 0.186782 -1.378161
v 2.012689 0.185622 -0.879807
v 1.971724 0.186461 -1.240256
v 1.371739 0.185791 -0.952482
v 1.275397 0.186662 -1.326779
v 0.429344 0.189764 -1.945649
v 0.643732 0.543230 -3.521929
v 0.728900 0.186601 -1.300463
v 0.841093 0.185874 -0.987917
v 1.713071 0.186458 -1.238971
v 1.431241 0.186212 -1.133393
v 0.015911 0.548754 -3.648847
v 1.490443 0.185350 -0.762990
v 2.071038 0.186015 -1.048740
v 0.355251 0.186592 -1.296696
v 1.517524 0.192709 -2.460256
v 0.743030 0.550365 -3.685847
v 1.674426 0.541577 -3.483961
v 1.025375 0.538144 -3.405099
v 1.787990 0.546655 -3.600613
v 1.882977 0.532783 -3.281950
v 0.427781 0.186572 -1.288305
v 1.365021 0.186210 -1.132700
v 0.265539 0.186861 -1.412182
v 1.540426 0.186714 -1.349310
v 1.250950 0.538591 -3.415358
v 1.669988 0.534081 -3.311762
v 1.055145 0.186399 -1.213940
v 1.695398 0.185600 -0.870491
v 1.411729 0.185649 -0.891233
v 1.763469 0.185432 -0.798102
v 1.973109 0.185702 -0.914105
v 1.537335 0.549382 -3.663269
v 1.547997 0.185274 -0.730071
v 1.103709 0.186165 -1.113134
v 1.426965 0.544025 -3.540191
v 1.351388 0.536947 -3.377603
v 0.283643 0.548781 -3.649458
v 1.755241 0.186830 -1.399155
