# Blender 5.1.1
# www.blender.org
mtllib point_sphere.mtl
o Sphere
v 0.000000 1.000000 0.000000
v 0.000000 0.382683 -0.923880
v 0.000000 0.000000 -1.000000
v 0.000000 -0.382683 -0.923880
v 0.000000 -0.923880 -0.382683
v 0.000000 -1.000000 0.000000
v 0.146447 0.923880 -0.353553
v 0.270598 0.707107 -0.653281
v 0.353553 0.382683 -0.853553
v 0.382683 0.000000 -0.923880
v 0.353553 -0.382683 -0.853553
v 0.270598 -0.707107 -0.653281
v 0.146447 -0.923880 -0.353553
v 0.270598 0.923880 -0.270598
v 0.500000 0.707107 -0.500000
v 0.653282 0.382683 -0.653281
v 0.707107 0.000000 -0.707107
v 0.653282 -0.382683 -0.653281
v 0.500000 -0.707107 -0.500000
v 0.270598 -0.923880 -0.270598
v 0.353553 0.923880 -0.146447
v 0.653281 0.707107 -0.270598
v 0.853553 0.382683 -0.353553
v 0.923880 0.000000 -0.382683
v 0.853553 -0.382683 -0.353553
v 0.653281 -0.707107 -0.270598
v 0.353553 -0.923880 -0.146447
v 0.382683 0.923880 0.000000
v 0.707107 0.707107 0.000000
v 0.923880 0.382683 0.000000
v 1.000000 0.000000 0.000000
v 0.923880 -0.382683 0.000000
v 0.707107 -0.707107 0.000000
v 0.382683 -0.923880 0.000000
v 0.353553 0.923880 0.146447
v 0.653281 0.707107 0.270598
v 0.853553 0.382683 0.353554
v 0.923879 0.000000 0.382684
v 0.853553 -0.382683 0.353554
v 0.653281 -0.707107 0.270598
v 0.353553 -0.923880 0.146447
v 0.270598 0.923880 0.270598
v 0.500000 0.707107 0.500000
v 0.653281 0.382683 0.653282
v 0.707107 0.000000 0.707107
v 0.653281 -0.382683 0.653282
v 0.500000 -0.707107 0.500000
v 0.270598 -0.923880 0.270598
v 0.146447 0.923880 0.353553
v 0.270598 0.707107 0.653281
v 0.353553 0.382683 0.853553
v 0.382683 0.000000 0.923880
v 0.353553 -0.382683 0.853553
v 0.270598 -0.707107 0.653281
v 0.146447 -0.923880 0.353553
v -0.000000 0.923880 0.382683
v -0.000000 0.707107 0.707107
v -0.000000 0.382683 0.923879
v -0.000000 0.000000 1.000000
v -0.000000 -0.382683 0.923879
v -0.000000 -0.707107 0.707107
v -0.000000 -0.923880 0.382683
v -0.146447 0.923880 0.353553
v -0.270598 0.707107 0.653281
v -0.353554 0.382683 0.853553
v -0.382684 0.000000 0.923879
v -0.353554 -0.382683 0.853553
v -0.270598 -0.707107 0.653281
v -0.146447 -0.923880 0.353553
v -0.270598 0.923880 0.270598
v -0.500000 0.707107 0.500000
v -0.653282 0.382683 0.653281
v -0.707107 0.000000 0.707106
v -0.653282 -0.382683 0.653281
v -0.500000 -0.707107 0.500000
v -0.270598 -0.923880 0.270598
v -0.353553 0.923880 0.146446
v -0.653281 0.707107 0.270598
v -0.853553 0.382683 0.353553
v -0.923880 0.000000 0.382683
v -0.853553 -0.382683 0.353553
v -0.653281 -0.707107 0.270598
v -0.353553 -0.923880 0.146446
v -0.382683 0.923880 -0.000000
v -0.707107 0.707107 -0.000000
v -0.923879 0.382683 -0.000000
v -1.000000 0.000000 -0.000001
v -0.923879 -0.382683 -0.000000
v -0.707107 -0.707107 -0.000000
v -0.382683 -0.923880 -0.000000
v -0.353553 0.923880 -0.146447
v -0.653281 0.707107 -0.270598
v -0.853553 0.382683 -0.353554
v -0.923879 0.000000 -0.382684
v -0.853553 -0.382683 -0.353554
v -0.653281 -0.707107 -0.270598
v -0.353553 -0.923880 -0.146447
v -0.270598 0.923880 -0.270598
v -0.500000 0.707107 -0.500000
v -0.653281 0.382683 -0.653282
v -0.707106 0.000000 -0.707107
v -0.653281 -0.382683 -0.653282
v -0.500000 -0.707107 -0.500000
v -0.270598 -0.923880 -0.270598
v -0.146446 0.923880 -0.353554
v -0.270598 0.707107 -0.653281
v -0.353553 0.382683 -0.853553
v -0.382683 0.000000 -0.923880
v -0.353553 -0.382683 -0.853553
v -0.270598 -0.707107 -0.653281
v -0.146446 -0.923880 -0.353554
v 0.000000 0.923880 -0.382683
v 0.000000 0.707107 -0.707107
v 0.000000 -0.707107 -0.707107
vn -0.0000 1.0000 -0.0000
vn -0.0000 0.3744 -0.9273
vn -0.0000 -0.0000 -1.0000
vn -0.0000 -0.3744 -0.9273
vn -0.0000 -0.9152 -0.4031
vn -0.0000 -1.0000 -0.0000
vn 0.1543 0.9152 -0.3724
vn 0.2751 0.6952 -0.6641
vn 0.3549 0.3744 -0.8567
vn 0.3827 -0.0000 -0.9239
vn 0.3549 -0.3744 -0.8567
vn 0.2751 -0.6952 -0.6641
vn 0.1543 -0.9152 -0.3724
vn 0.2850 0.9152 -0.2850
vn 0.5083 0.6952 -0.5083
vn 0.6557 0.3744 -0.6557
vn 0.7071 -0.0000 -0.7071
vn 0.6557 -0.3744 -0.6557
vn 0.5083 -0.6952 -0.5083
vn 0.2850 -0.9152 -0.2850
vn 0.3724 0.9152 -0.1543
vn 0.6641 0.6952 -0.2751
vn 0.8567 0.3744 -0.3549
vn 0.9239 -0.0000 -0.3827
vn 0.8567 -0.3744 -0.3549
vn 0.6641 -0.6952 -0.2751
vn 0.3724 -0.9152 -0.1543
vn 0.4031 0.9152 -0.0000
vn 0.7189 0.6952 -0.0000
vn 0.9273 0.3744 -0.0000
vn 1.0000 -0.0000 -0.0000
vn 0.9273 -0.3744 -0.0000
vn 0.7189 -0.6952 -0.0000
vn 0.4031 -0.9152 -0.0000
vn 0.3724 0.9152 0.1543
vn 0.6641 0.6952 0.2751
vn 0.8567 0.3744 0.3549
vn 0.9239 -0.0000 0.3827
vn 0.8567 -0.3744 0.3549
vn 0.6641 -0.6952 0.2751
vn 0.3724 -0.9152 0.1543
vn 0.2850 0.9152 0.2850
vn 0.5083 0.6952 0.5083
vn 0.6557 0.3744 0.6557
vn 0.7071 -0.0000 0.7071
vn 0.6557 -0.3744 0.6557
vn 0.5083 -0.6952 0.5083
vn 0.2850 -0.9152 0.2850
vn 0.1543 0.9152 0.3724
vn 0.2751 0.6952 0.6641
vn 0.3549 0.3744 0.8567
vn 0.3827 -0.0000 0.9239
vn 0.3549 -0.3744 0.8567
vn 0.2751 -0.6952 0.6641
vn 0.1543 -0.9152 0.3724
vn -0.0000 0.9152 0.4031
vn -0.0000 0.6952 0.7189
vn -0.0000 0.3744 0.9273
vn -0.0000 -0.0000 1.0000
vn -0.0000 -0.3744 0.9273
vn -0.0000 -0.6952 0.7189
vn -0.0000 -0.9152 0.4031
vn -0.1543 0.9152 0.3724
vn -0.2751 0.6952 0.6641
vn -0.3549 0.3744 0.8567
vn -0.3827 -0.0000 0.9239
vn -0.3549 -0.3744 0.8567
vn -0.2751 -0.6952 0.6641
vn -0.1543 -0.9152 0.3724
vn -0.2850 0.9152 0.2850
vn -0.5083 0.6952 0.5083
vn -0.6557 0.3744 0.6557
vn -0.7071 -0.0000 0.7071
vn -0.6557 -0.3744 0.6557
vn -0.5083 -0.6952 0.5083
vn -0.2850 -0.9152 0.2850
vn -0.3724 0.9152 0.1543
vn -0.6641 0.6952 0.2751
vn -0.8567 0.3744 0.3549
vn -0.9239 -0.0000 0.3827
vn -0.8567 -0.3744 0.3549
vn -0.6641 -0.6952 0.2751
vn -0.3724 -0.9152 0.1543
vn -0.4031 0.9152 -0.0000
vn -0.7189 0.6952 -0.0000
vn -0.9273 0.3744 -0.0000
vn -1.0000 -0.0000 -0.0000
vn -0.9273 -0.3744 -0.0000
vn -0.7189 -0.6952 -0.0000
vn -0.4031 -0.9152 -0.0000
vn -0.3724 0.9152 -0.1543
vn -0.6641 0.6952 -0.2751
vn -0.8567 0.3744 -0.3549
vn -0.9239 -0.0000 -0.3827
vn -0.8567 -0.3744 -0.3549
vn -0.6641 -0.6952 -0.2751
vn -0.3724 -0.9152 -0.1543
vn -0.2850 0.9152 -0.2850
vn -0.5083 0.6952 -0.5083
vn -0.6557 0.3744 -0.6557
vn -0.7071 -0.0000 -0.7071
vn -0.6557 -0.3744 -0.6557
vn -0.5083 -0.6952 -0.5083
vn -0.2850 -0.9152 -0.2850
vn -0.1543 0.9152 -0.3724
vn -0.2751 0.6952 -0.6641
vn -0.3549 0.3744 -0.8567
vn -0.3827 -0.0000 -0.9239
vn -0.3549 -0.3744 -0.8567
vn -0.2751 -0.6952 -0.6641
vn -0.1543 -0.9152 -0.3724
vn -0.0000 0.9152 -0.4031
vn -0.0000 0.6952 -0.7189
vn -0.0000 -0.6952 -0.7189
vt 0.750000 0.125000
vt 0.750000 0.250000
vt 0.687500 0.250000
vt 0.687500 0.125000
vt 0.750000 0.375000
vt 0.750000 0.500000
vt 0.687500 0.500000
vt 0.687500 0.375000
vt 0.750000 0.625000
vt 0.750000 0.750000
vt 0.687500 0.750000
vt 0.687500 0.625000
vt 0.750000 0.875000
vt 0.718750 1.000000
vt 0.687500 0.875000
vt 0.718750 0.000000
vt 0.656250 1.000000
vt 0.625000 0.875000
vt 0.656250 0.000000
vt 0.625000 0.125000
vt 0.625000 0.375000
vt 0.625000 0.250000
vt 0.625000 0.625000
vt 0.625000 0.500000
vt 0.625000 0.750000
vt 0.562500 0.375000
vt 0.562500 0.250000
vt 0.562500 0.625000
vt 0.562500 0.500000
vt 0.562500 0.875000
vt 0.562500 0.750000
vt 0.562500 0.125000
vt 0.593750 1.000000
vt 0.593750 0.000000
vt 0.500000 0.250000
vt 0.500000 0.125000
vt 0.500000 0.500000
vt 0.500000 0.375000
vt 0.500000 0.750000
vt 0.500000 0.625000
vt 0.531250 1.000000
vt 0.500000 0.875000
vt 0.531250 0.000000
vt 0.437500 0.500000
vt 0.437500 0.375000
vt 0.437500 0.750000
vt 0.437500 0.625000
vt 0.468750 1.000000
vt 0.437500 0.875000
vt 0.468750 0.000000
vt 0.437500 0.125000
vt 0.437500 0.250000
vt 0.406250 0.000000
vt 0.375000 0.125000
vt 0.375000 0.375000
vt 0.375000 0.250000
vt 0.375000 0.625000
vt 0.375000 0.500000
vt 0.375000 0.875000
vt 0.375000 0.750000
vt 0.406250 1.000000
vt 0.312500 0.625000
vt 0.312500 0.500000
vt 0.312500 0.875000
vt 0.312500 0.750000
vt 0.312500 0.250000
vt 0.312500 0.125000
vt 0.312500 0.375000
vt 0.343750 1.000000
vt 0.343750 0.000000
vt 0.250000 0.250000
vt 0.250000 0.125000
vt 0.250000 0.500000
vt 0.250000 0.375000
vt 0.250000 0.750000
vt 0.250000 0.625000
vt 0.281250 1.000000
vt 0.250000 0.875000
vt 0.281250 0.000000
vt 0.187500 0.750000
vt 0.187500 0.625000
vt 0.218750 1.000000
vt 0.187500 0.875000
vt 0.218750 0.000000
vt 0.187500 0.125000
vt 0.187500 0.375000
vt 0.187500 0.250000
vt 0.187500 0.500000
vt 0.156250 0.000000
vt 0.125000 0.125000
vt 0.125000 0.375000
vt 0.125000 0.250000
vt 0.125000 0.625000
vt 0.125000 0.500000
vt 0.125000 0.875000
vt 0.125000 0.750000
vt 0.156250 1.000000
vt 0.062500 0.875000
vt 0.062500 0.750000
vt 0.062500 0.250000
vt 0.062500 0.125000
vt 0.062500 0.500000
vt 0.062500 0.375000
vt 0.062500 0.625000
vt 0.093750 1.000000
vt 0.093750 0.000000
vt 0.000000 0.250000
vt 0.000000 0.125000
vt 0.000000 0.500000
vt 0.000000 0.375000
vt 0.000000 0.750000
vt 0.000000 0.625000
vt 0.031250 1.000000
vt 0.000000 0.875000
vt 0.031250 0.000000
vt 1.000000 0.875000
vt 0.968750 1.000000
vt 0.937500 0.875000
vt 0.968750 0.000000
vt 1.000000 0.125000
vt 0.937500 0.125000
vt 1.000000 0.250000
vt 1.000000 0.375000
vt 0.937500 0.375000
vt 0.937500 0.250000
vt 1.000000 0.500000
vt 1.000000 0.625000
vt 0.937500 0.625000
vt 0.937500 0.500000
vt 1.000000 0.750000
vt 0.937500 0.750000
vt 0.875000 0.375000
vt 0.875000 0.250000
vt 0.875000 0.625000
vt 0.875000 0.500000
vt 0.875000 0.875000
vt 0.875000 0.750000
vt 0.875000 0.125000
vt 0.906250 1.000000
vt 0.906250 0.000000
vt 0.812500 0.250000
vt 0.812500 0.125000
vt 0.812500 0.500000
vt 0.812500 0.375000
vt 0.812500 0.750000
vt 0.812500 0.625000
vt 0.843750 1.000000
vt 0.812500 0.875000
vt 0.843750 0.000000
vt 0.781250 1.000000
vt 0.781250 0.000000
s 1
usemtl Sphere
f 5/1/5 114/2/114 12/3/12 13/4/13
f 4/5/4 3/6/3 10/7/10 11/8/11
f 2/9/2 113/10/113 8/11/8 9/12/9
f 112/13/112 1/14/1 7/15/7
f 6/16/6 5/1/5 13/4/13
f 114/2/114 4/5/4 11/8/11 12/3/12
f 3/6/3 2/9/2 9/12/9 10/7/10
f 113/10/113 112/13/112 7/15/7 8/11/8
f 7/15/7 1/17/1 14/18/14
f 6/19/6 13/4/13 20/20/20
f 12/3/12 11/8/11 18/21/18 19/22/19
f 10/7/10 9/12/9 16/23/16 17/24/17
f 8/11/8 7/15/7 14/18/14 15/25/15
f 13/4/13 12/3/12 19/22/19 20/20/20
f 11/8/11 10/7/10 17/24/17 18/21/18
f 9/12/9 8/11/8 15/25/15 16/23/16
f 19/22/19 18/21/18 25/26/25 26/27/26
f 17/24/17 16/23/16 23/28/23 24/29/24
f 15/25/15 14/18/14 21/30/21 22/31/22
f 20/20/20 19/22/19 26/27/26 27/32/27
f 18/21/18 17/24/17 24/29/24 25/26/25
f 16/23/16 15/25/15 22/31/22 23/28/23
f 14/18/14 1/33/1 21/30/21
f 6/34/6 20/20/20 27/32/27
f 27/32/27 26/27/26 33/35/33 34/36/34
f 25/26/25 24/29/24 31/37/31 32/38/32
f 23/28/23 22/31/22 29/39/29 30/40/30
f 21/30/21 1/41/1 28/42/28
f 6/43/6 27/32/27 34/36/34
f 26/27/26 25/26/25 32/38/32 33/35/33
f 24/29/24 23/28/23 30/40/30 31/37/31
f 22/31/22 21/30/21 28/42/28 29/39/29
f 32/38/32 31/37/31 38/44/38 39/45/39
f 30/40/30 29/39/29 36/46/36 37/47/37
f 28/42/28 1/48/1 35/49/35
f 6/50/6 34/36/34 41/51/41
f 33/35/33 32/38/32 39/45/39 40/52/40
f 31/37/31 30/40/30 37/47/37 38/44/38
f 29/39/29 28/42/28 35/49/35 36/46/36
f 34/36/34 33/35/33 40/52/40 41/51/41
f 6/53/6 41/51/41 48/54/48
f 40/52/40 39/45/39 46/55/46 47/56/47
f 38/44/38 37/47/37 44/57/44 45/58/45
f 36/46/36 35/49/35 42/59/42 43/60/43
f 41/51/41 40/52/40 47/56/47 48/54/48
f 39/45/39 38/44/38 45/58/45 46/55/46
f 37/47/37 36/46/36 43/60/43 44/57/44
f 35/49/35 1/61/1 42/59/42
f 45/58/45 44/57/44 51/62/51 52/63/52
f 43/60/43 42/59/42 49/64/49 50/65/50
f 48/54/48 47/56/47 54/66/54 55/67/55
f 46/55/46 45/58/45 52/63/52 53/68/53
f 44/57/44 43/60/43 50/65/50 51/62/51
f 42/59/42 1/69/1 49/64/49
f 6/70/6 48/54/48 55/67/55
f 47/56/47 46/55/46 53/68/53 54/66/54
f 55/67/55 54/66/54 61/71/61 62/72/62
f 53/68/53 52/63/52 59/73/59 60/74/60
f 51/62/51 50/65/50 57/75/57 58/76/58
f 49/64/49 1/77/1 56/78/56
f 6/79/6 55/67/55 62/72/62
f 54/66/54 53/68/53 60/74/60 61/71/61
f 52/63/52 51/62/51 58/76/58 59/73/59
f 50/65/50 49/64/49 56/78/56 57/75/57
f 58/76/58 57/75/57 64/80/64 65/81/65
f 56/78/56 1/82/1 63/83/63
f 6/84/6 62/72/62 69/85/69
f 61/71/61 60/74/60 67/86/67 68/87/68
f 59/73/59 58/76/58 65/81/65 66/88/66
f 57/75/57 56/78/56 63/83/63 64/80/64
f 62/72/62 61/71/61 68/87/68 69/85/69
f 60/74/60 59/73/59 66/88/66 67/86/67
f 6/89/6 69/85/69 76/90/76
f 68/87/68 67/86/67 74/91/74 75/92/75
f 66/88/66 65/81/65 72/93/72 73/94/73
f 64/80/64 63/83/63 70/95/70 71/96/71
f 69/85/69 68/87/68 75/92/75 76/90/76
f 67/86/67 66/88/66 73/94/73 74/91/74
f 65/81/65 64/80/64 71/96/71 72/93/72
f 63/83/63 1/97/1 70/95/70
f 71/96/71 70/95/70 77/98/77 78/99/78
f 76/90/76 75/92/75 82/100/82 83/101/83
f 74/91/74 73/94/73 80/102/80 81/103/81
f 72/93/72 71/96/71 78/99/78 79/104/79
f 70/95/70 1/105/1 77/98/77
f 6/106/6 76/90/76 83/101/83
f 75/92/75 74/91/74 81/103/81 82/100/82
f 73/94/73 72/93/72 79/104/79 80/102/80
f 83/101/83 82/100/82 89/107/89 90/108/90
f 81/103/81 80/102/80 87/109/87 88/110/88
f 79/104/79 78/99/78 85/111/85 86/112/86
f 77/98/77 1/113/1 84/114/84
f 6/115/6 83/101/83 90/108/90
f 82/100/82 81/103/81 88/110/88 89/107/89
f 80/102/80 79/104/79 86/112/86 87/109/87
f 78/99/78 77/98/77 84/114/84 85/111/85
f 84/116/84 1/117/1 91/118/91
f 6/119/6 90/120/90 97/121/97
f 89/122/89 88/123/88 95/124/95 96/125/96
f 87/126/87 86/127/86 93/128/93 94/129/94
f 85/130/85 84/116/84 91/118/91 92/131/92
f 90/120/90 89/122/89 96/125/96 97/121/97
f 88/123/88 87/126/87 94/129/94 95/124/95
f 86/127/86 85/130/85 92/131/92 93/128/93
f 96/125/96 95/124/95 102/132/102 103/133/103
f 94/129/94 93/128/93 100/134/100 101/135/101
f 92/131/92 91/118/91 98/136/98 99/137/99
f 97/121/97 96/125/96 103/133/103 104/138/104
f 95/124/95 94/129/94 101/135/101 102/132/102
f 93/128/93 92/131/92 99/137/99 100/134/100
f 91/118/91 1/139/1 98/136/98
f 6/140/6 97/121/97 104/138/104
f 104/138/104 103/133/103 110/141/110 111/142/111
f 102/132/102 101/135/101 108/143/108 109/144/109
f 100/134/100 99/137/99 106/145/106 107/146/107
f 98/136/98 1/147/1 105/148/105
f 6/149/6 104/138/104 111/142/111
f 103/133/103 102/132/102 109/144/109 110/141/110
f 101/135/101 100/134/100 107/146/107 108/143/108
f 99/137/99 98/136/98 105/148/105 106/145/106
f 109/144/109 108/143/108 3/6/3 4/5/4
f 107/146/107 106/145/106 113/10/113 2/9/2
f 105/148/105 1/150/1 112/13/112
f 6/151/6 111/142/111 5/1/5
f 110/141/110 109/144/109 4/5/4 114/2/114
f 108/143/108 107/146/107 2/9/2 3/6/3
f 106/145/106 105/148/105 112/13/112 113/10/113
f 111/142/111 110/141/110 114/2/114 5/1/5
